<svg xmlns="http://www.w3.org/2000/svg" xmlns:xlink="http://www.w3.org/1999/xlink" viewBox="0 0 74.7 71.52"><defs><style>.cls-1{isolation:isolate;}.cls-2{fill:#c2c2d1;}.cls-10,.cls-11,.cls-12,.cls-13,.cls-14,.cls-2,.cls-3,.cls-7,.cls-9{fill-rule:evenodd;}.cls-3{fill:#ebe5e5;}.cls-4{fill:url(#Безымянный_градиент_4);}.cls-5{fill:#ff5f56;}.cls-6{fill:url(#Безымянный_градиент_156);}.cls-7{fill:url(#Безымянный_градиент_50);}.cls-8{fill:url(#Безымянный_градиент_11);}.cls-9{fill:#ff9f92;mix-blend-mode:soft-light;}.cls-10{fill:url(#Безымянный_градиент_50-2);}.cls-11,.cls-12{mix-blend-mode:multiply;opacity:0.68;}.cls-11{fill:url(#Безымянный_градиент_2);}.cls-12{fill:url(#Безымянный_градиент_2-2);}.cls-13{fill:url(#Безымянный_градиент_50-3);}.cls-14{fill:url(#Безымянный_градиент_50-4);}</style><linearGradient id="Безымянный_градиент_4" x1="37.35" y1="63.58" x2="37.35" y2="8.89" gradientUnits="userSpaceOnUse"><stop offset="0.03" stop-color="#ff9b86"/><stop offset="0.22" stop-color="#ffa17b"/><stop offset="0.49" stop-color="#ffa572"/><stop offset="0.95" stop-color="#ffa670"/></linearGradient><linearGradient id="Безымянный_градиент_156" x1="37.16" y1="47.43" x2="37.16" y2="31.37" gradientUnits="userSpaceOnUse"><stop offset="0" stop-color="#ce3e41"/><stop offset="1" stop-color="#64003c"/></linearGradient><radialGradient id="Безымянный_градиент_50" cx="36.86" cy="36.23" r="7.25" gradientUnits="userSpaceOnUse"><stop offset="0.03" stop-color="#fff0eb"/><stop offset="0.98" stop-color="#ffe7e9"/></radialGradient><linearGradient id="Безымянный_градиент_11" x1="35.08" y1="26.72" x2="38.52" y2="37.11" gradientUnits="userSpaceOnUse"><stop offset="0" stop-color="#ff6641"/><stop offset="1" stop-color="#b8003c"/></linearGradient><radialGradient id="Безымянный_градиент_50-2" cx="36.93" cy="45.58" r="6.69" xlink:href="#Безымянный_градиент_50"/><linearGradient id="Безымянный_градиент_2" x1="53.99" y1="37.84" x2="53.99" y2="30.54" gradientUnits="userSpaceOnUse"><stop offset="0" stop-color="#fff"/><stop offset="0.99" stop-color="#ca00a4"/></linearGradient><linearGradient id="Безымянный_градиент_2-2" x1="166.68" y1="36.94" x2="166.68" y2="29.65" gradientTransform="matrix(-1, 0, 0, 1, 187.17, 0)" xlink:href="#Безымянный_градиент_2"/><radialGradient id="Безымянный_градиент_50-3" cx="25.21" cy="33.63" r="1.72" xlink:href="#Безымянный_градиент_50"/><radialGradient id="Безымянный_градиент_50-4" cx="48.68" cy="34.13" r="1.87" xlink:href="#Безымянный_градиент_50"/></defs><g class="cls-1"><g id="Capa_2" data-name="Capa 2"><g id="objects"><path class="cls-2" d="M3.19,4.93S-4,30.22,3.19,66.84c0,0,34.16,10.53,68.6,0,0,0,7.12-31.16-.9-61.42C70.89,5.42,38.5-2.86,3.19,4.93Z"/><path class="cls-3" d="M3.19,3.34S-4,28.62,3.19,65.25c0,0,34.16,10.53,68.6,0,0,0,7.12-31.16-.9-61.42C70.89,3.83,38.5-4.45,3.19,3.34Z"/><circle class="cls-4" cx="37.35" cy="36.23" r="27.34"/><path class="cls-5" d="M20.44,35.87s4.07,14.35,16.35,14.35S53.34,36.56,53.34,36.56Z"/><path class="cls-6" d="M20.23,32c-1.35,4.6,4.59,15.47,17,15.47s17.63-12.4,17-14.52S49.17,35,37.1,35,20.93,29.61,20.23,32Z"/><path class="cls-7" d="M27,33.52s8.64,11.95,19.76.4C46.74,33.92,35.26,35.12,27,33.52Z"/><path class="cls-8" d="M21,31.37a192.46,192.46,0,0,0,31.52,1.05S35.59,39.39,21,31.37Z"/><path class="cls-9" d="M26.54,43.37s2.47-3.43,10-3,9.32,4,9.32,4S37.34,50.47,26.54,43.37Z"/><path class="cls-10" d="M27.55,44.33s6.73,2.32,18.76,0A18.93,18.93,0,0,1,27.55,44.33Z"/><path class="cls-11" d="M52,30.54s3.79,2.94,4,7.3C55.93,37.84,57.06,31.11,52,30.54Z"/><path class="cls-12" d="M22.53,29.65s-3.79,2.94-4,7.29C18.55,36.94,17.41,30.22,22.53,29.65Z"/><path class="cls-13" d="M23.11,32.4s1.88,4.26,4.2,1.53Z"/><path class="cls-14" d="M46.31,34.35s1.91,2.88,4.74-1.39Z"/></g></g></g></svg>