<svg xmlns="http://www.w3.org/2000/svg" xmlns:xlink="http://www.w3.org/1999/xlink" viewBox="0 0 74.7 71.52"><defs><style>.cls-1{isolation:isolate;}.cls-2{fill:#c2c2d1;}.cls-2,.cls-3,.cls-4,.cls-5,.cls-6,.cls-7,.cls-8,.cls-9{fill-rule:evenodd;}.cls-3{fill:#ebe5e5;}.cls-4{fill:url(#Безымянный_градиент_145);}.cls-5,.cls-6,.cls-7,.cls-8{mix-blend-mode:multiply;opacity:0.4;}.cls-5{fill:url(#Безымянный_градиент_107);}.cls-6{fill:url(#Безымянный_градиент_103);}.cls-7{fill:url(#Безымянный_градиент_107-2);}.cls-8{fill:url(#Безымянный_градиент_107-3);}.cls-9{fill:#ffc3a4;}</style><linearGradient id="Безымянный_градиент_145" x1="-180.28" y1="35.55" x2="-234.97" y2="35.55" gradientTransform="matrix(-1, 0, 0, 1, -171.27, 0)" gradientUnits="userSpaceOnUse"><stop offset="0.05" stop-color="#ffa670"/><stop offset="0.47" stop-color="#ffa472"/><stop offset="0.73" stop-color="#ff9b78"/><stop offset="0.93" stop-color="#ff8d84"/><stop offset="0.97" stop-color="#ff8a86"/></linearGradient><linearGradient id="Безымянный_градиент_107" x1="-226.38" y1="49.46" x2="-218.72" y2="49.46" gradientTransform="matrix(-1, 0, 0, 1, -171.27, 0)" gradientUnits="userSpaceOnUse"><stop offset="0.01" stop-color="#ca00a4"/><stop offset="1" stop-color="#fff"/></linearGradient><linearGradient id="Безымянный_градиент_103" x1="-227.5" y1="63.31" x2="-221.74" y2="53.34" gradientTransform="matrix(-1, 0, 0, 1, -171.27, 0)" gradientUnits="userSpaceOnUse"><stop offset="0" stop-color="#fff"/><stop offset="0.99" stop-color="#ca00a4"/></linearGradient><linearGradient id="Безымянный_градиент_107-2" x1="-202.45" y1="29.12" x2="-198.26" y2="29.12" xlink:href="#Безымянный_градиент_107"/><linearGradient id="Безымянный_градиент_107-3" x1="-215.17" y1="45.94" x2="-198.26" y2="45.94" xlink:href="#Безымянный_градиент_107"/></defs><g class="cls-1"><g id="Capa_2" data-name="Capa 2"><g id="objects"><path class="cls-2" d="M3.19,4.93S-4,30.22,3.19,66.84c0,0,34.16,10.53,68.6,0,0,0,7.12-31.16-.9-61.42C70.89,5.42,38.5-2.86,3.19,4.93Z"/><path class="cls-3" d="M3.19,3.34S-4,28.62,3.19,65.25c0,0,34.16,10.53,68.6,0,0,0,7.12-31.16-.9-61.42C70.89,3.83,38.5-4.45,3.19,3.34Z"/><path class="cls-4" d="M20.78,6.78C24.13,11.54,29.55,19.41,33,23.5s6.68,5.64,9.35,9,4.09,7.88,5.8,8.77,4.83,0,6.16.52,3.64,3.49,5.57,4.87A39.63,39.63,0,0,0,63.68,49s.31,2.3-1.86,2.34A5.93,5.93,0,0,1,57,49.09l-2.67-.86,2.3,4.11A25.91,25.91,0,0,1,60.08,61s-.67,1.06-2.79.67l.12,1.12s-2.79,2.5-6.08,1.17l-3.67-7.08H47.1s.5,3.95.61,6.41A2.7,2.7,0,0,1,45,63.2l-1.11-6.07s0,0,0,0A43.6,43.6,0,0,1,40,49.33s-7.93-9.21-13-14.55h0a4.87,4.87,0,0,0-.63-.65C14.62,26.6,9,19.25,9,19.25S11.83,8.5,20.78,6.78Z"/><path class="cls-5" d="M54.32,48.23s-2.27,1.93-6.87,1.27c0,0,3.95,2.58,7.66.14Z"/><path class="cls-6" d="M56.24,51.65l-1.62,2.14a67.15,67.15,0,0,1,2.67,7.85s-1.86-5.53-3.38-7.54l-2,1.15s2.2,6.08,2.9,8.85c0,0-2.37-7-3.56-8.25l-3.62,1H47.1l-1.69-.59S50.17,57.08,56.24,51.65Z"/><path class="cls-7" d="M31.17,26.9A5.49,5.49,0,0,0,27,31.33,29.53,29.53,0,0,1,31.17,26.9Z"/><path class="cls-8" d="M27,34.78c5.1,5.34,13,14.55,13,14.55a43.6,43.6,0,0,0,3.88,7.76A30.11,30.11,0,0,1,41,48.23Z"/><path class="cls-9" d="M63.68,49l-1.93.75a1.86,1.86,0,0,1-1-2.52Z"/></g></g></g></svg>