<svg xmlns="http://www.w3.org/2000/svg" xmlns:xlink="http://www.w3.org/1999/xlink" viewBox="0 0 74.7 71.52"><defs><style>.cls-1{isolation:isolate;}.cls-2{fill:#c2c2d1;}.cls-2,.cls-3{fill-rule:evenodd;}.cls-3{fill:#ebe5e5;}.cls-4{fill:url(#Безымянный_градиент_4);}.cls-5{fill:url(#Безымянный_градиент_11);}.cls-6{fill:#ff5f56;}.cls-7{fill:#901a41;}.cls-10,.cls-8,.cls-9{mix-blend-mode:multiply;opacity:0.3;}.cls-8{fill:url(#Безымянный_градиент_103);}.cls-9{fill:url(#Безымянный_градиент_103-2);}.cls-10{fill:url(#Безымянный_градиент_107);}</style><linearGradient id="Безымянный_градиент_4" x1="36.78" y1="63.9" x2="36.78" y2="9.21" gradientUnits="userSpaceOnUse"><stop offset="0.03" stop-color="#ff9b86"/><stop offset="0.22" stop-color="#ffa17b"/><stop offset="0.49" stop-color="#ffa572"/><stop offset="0.95" stop-color="#ffa670"/></linearGradient><linearGradient id="Безымянный_градиент_11" x1="34.97" y1="32.17" x2="37.87" y2="40.9" gradientUnits="userSpaceOnUse"><stop offset="0" stop-color="#ff6641"/><stop offset="1" stop-color="#b8003c"/></linearGradient><linearGradient id="Безымянный_градиент_103" x1="33.88" y1="26.63" x2="38.83" y2="26.63" gradientUnits="userSpaceOnUse"><stop offset="0" stop-color="#fff"/><stop offset="0.99" stop-color="#ca00a4"/></linearGradient><linearGradient id="Безымянный_градиент_103-2" x1="29.72" y1="51.78" x2="42.97" y2="51.78" xlink:href="#Безымянный_градиент_103"/><linearGradient id="Безымянный_градиент_107" x1="20.37" y1="42.21" x2="52.32" y2="42.21" gradientUnits="userSpaceOnUse"><stop offset="0.01" stop-color="#ca00a4"/><stop offset="1" stop-color="#fff"/></linearGradient></defs><g class="cls-1"><g id="Capa_2" data-name="Capa 2"><g id="objects"><path class="cls-2" d="M3.19,4.93S-4,30.22,3.19,66.84c0,0,34.16,10.53,68.6,0,0,0,7.12-31.16-.9-61.42C70.89,5.42,38.5-2.86,3.19,4.93Z"/><path class="cls-3" d="M3.19,3.34S-4,28.62,3.19,65.25c0,0,34.16,10.53,68.6,0,0,0,7.12-31.16-.9-61.42C70.89,3.83,38.5-4.45,3.19,3.34Z"/><circle class="cls-4" cx="36.78" cy="36.56" r="27.34"/><path class="cls-5" d="M22.49,36.3c4.19,1.26,6.33-3.11,13.62-3.29s10.49,4.14,14.24,3.76a49.86,49.86,0,0,1-13.62,1.64A46,46,0,0,1,22.49,36.3Z"/><path class="cls-6" d="M52.88,36.08s-.19.34-.55.91h0c-1.76,2.77-7.66,10.89-15.93,10.89s-14.25-8.49-16-11.34h0c-.35-.58-.54-.93-.54-.93a42,42,0,0,0,16.94,4C46.9,40,52.88,36.08,52.88,36.08Z"/><path class="cls-7" d="M16.35,34.54s19.73,12.36,40.89,0C57.24,34.54,40.65,42.69,16.35,34.54Z"/><path class="cls-8" d="M33.88,31.87s3.11.81,4.95,0L38.21,21H34.06Z"/><path class="cls-9" d="M29.72,49.05a25,25,0,0,0,13.25,0s-2.53,4.79-6.56,5.42S29.72,49.05,29.72,49.05Z"/><path class="cls-10" d="M52.32,37c-1.76,2.77-7.66,10.89-15.93,10.89s-14.25-8.49-16-11.34l4.24,1.55C24,41.73,29.36,47,36.35,47.29S47.9,41,45.11,39.23Z"/></g></g></g></svg>