<svg xmlns="http://www.w3.org/2000/svg" xmlns:xlink="http://www.w3.org/1999/xlink" viewBox="0 0 74.7 71.52"><defs><style>.cls-1{isolation:isolate;}.cls-2{fill:#c2c2d1;}.cls-10,.cls-11,.cls-12,.cls-13,.cls-2,.cls-3,.cls-4,.cls-5,.cls-6,.cls-7,.cls-8,.cls-9{fill-rule:evenodd;}.cls-3{fill:#ebe5e5;}.cls-4{fill:url(#Безымянный_градиент_146);}.cls-10,.cls-11,.cls-12,.cls-13,.cls-5,.cls-6,.cls-7,.cls-9{mix-blend-mode:multiply;opacity:0.4;}.cls-5{fill:url(#Безымянный_градиент_107);}.cls-6{fill:url(#Безымянный_градиент_103);}.cls-7{fill:url(#Безымянный_градиент_107-2);}.cls-8{fill:#ffc3a4;}.cls-9{fill:url(#Безымянный_градиент_107-3);}.cls-10{fill:url(#Безымянный_градиент_107-4);}.cls-11{fill:url(#Безымянный_градиент_107-5);}.cls-12{fill:url(#Безымянный_градиент_107-6);}.cls-13{fill:url(#Безымянный_градиент_107-7);}</style><linearGradient id="Безымянный_градиент_146" x1="33.8" y1="59.67" x2="33.8" y2="21.26" gradientUnits="userSpaceOnUse"><stop offset="0.03" stop-color="#ff8a86"/><stop offset="0.07" stop-color="#ff8d84"/><stop offset="0.27" stop-color="#ff9b78"/><stop offset="0.53" stop-color="#ffa472"/><stop offset="0.95" stop-color="#ffa670"/></linearGradient><linearGradient id="Безымянный_градиент_107" x1="28.43" y1="35.07" x2="41.1" y2="35.07" gradientUnits="userSpaceOnUse"><stop offset="0.01" stop-color="#ca00a4"/><stop offset="1" stop-color="#fff"/></linearGradient><linearGradient id="Безымянный_градиент_103" x1="26.58" y1="57.99" x2="36.11" y2="41.49" gradientUnits="userSpaceOnUse"><stop offset="0" stop-color="#fff"/><stop offset="0.99" stop-color="#ca00a4"/></linearGradient><linearGradient id="Безымянный_градиент_107-2" x1="46.98" y1="39.44" x2="53.39" y2="39.44" xlink:href="#Безымянный_градиент_107"/><linearGradient id="Безымянный_градиент_107-3" x1="19.76" y1="38.22" x2="19.76" y2="34.33" xlink:href="#Безымянный_градиент_107"/><linearGradient id="Безымянный_градиент_107-4" x1="22.51" y1="55.36" x2="22.51" y2="54.09" xlink:href="#Безымянный_градиент_107"/><linearGradient id="Безымянный_градиент_107-5" x1="42.88" y1="58.47" x2="42.88" y2="57.59" xlink:href="#Безымянный_градиент_107"/><linearGradient id="Безымянный_градиент_107-6" x1="31.77" y1="59.57" x2="31.77" y2="58.62" xlink:href="#Безымянный_градиент_107"/><linearGradient id="Безымянный_градиент_107-7" x1="26.75" y1="59.3" x2="26.75" y2="56.98" xlink:href="#Безымянный_градиент_107"/></defs><g class="cls-1"><g id="Capa_2" data-name="Capa 2"><g id="objects"><path class="cls-2" d="M3.19,4.93S-4,30.22,3.19,66.84c0,0,34.16,10.53,68.6,0,0,0,7.12-31.16-.9-61.42C70.89,5.42,38.5-2.86,3.19,4.93Z"/><path class="cls-3" d="M3.19,3.34S-4,28.62,3.19,65.25c0,0,34.16,10.53,68.6,0,0,0,7.12-31.16-.9-61.42C70.89,3.83,38.5-4.45,3.19,3.34Z"/><path class="cls-4" d="M53.39,34.86A72.68,72.68,0,0,1,47,47.71l0,.06-1.84,10a4.48,4.48,0,0,1-4.43.09c.19-4.06,1-10.6,1-10.6h-.93L34.68,59c-5.44,2.21-10-1.94-10-1.94l.18-1.85c-3.5.66-4.6-1.1-4.6-1.1a42.71,42.71,0,0,1,5.71-14.29l3.82-6.79-4.43,1.42a9.84,9.84,0,0,1-8,3.75c-3.59-.07-3.08-3.88-3.08-3.88a64.44,64.44,0,0,0,6.34-3.93c3.19-2.28,7-7.19,9.21-8.06s7.08-.21,10.2-.85c7.78-1.61,11.18,5.18,12.56,9.67h0A25.09,25.09,0,0,1,53.39,34.86Z"/><path class="cls-5" d="M29.73,33s3.75,3.2,11.37,2.09c0,0-6.54,4.28-12.67.24Z"/><path class="cls-6" d="M26.55,38.7l2.69,3.53a113.55,113.55,0,0,0-4.43,13s3.08-9.16,5.6-12.47l3.25,1.9S30,54.71,28.87,59.3c0,0,3.92-11.63,5.89-13.66l6,1.67h.92l2.8-1S36.59,47.68,26.55,38.7Z"/><path class="cls-7" d="M53.39,34.86A72.68,72.68,0,0,1,47,47.71c.36-.71,4.69-9.6,5.57-16.53A25.09,25.09,0,0,1,53.39,34.86Z"/><path class="cls-8" d="M14.24,34.34l3.2,1.22a3.06,3.06,0,0,0,1.67-4.15Z"/><path class="cls-9" d="M25.31,34.46a9.84,9.84,0,0,1-8,3.75c-3.59-.07-3.08-3.88-3.08-3.88l4.85,3.2A9.27,9.27,0,0,0,25.31,34.46Z"/><path class="cls-10" d="M20.21,54.12a7.2,7.2,0,0,1,4.6,1.11S21.43,55.93,20.21,54.12Z"/><path class="cls-11" d="M40.67,57.9s3.06-.65,4.43-.09A4.44,4.44,0,0,1,40.67,57.9Z"/><path class="cls-12" d="M28.87,59.3A8.87,8.87,0,0,1,34.68,59,11.89,11.89,0,0,1,28.87,59.3Z"/><path class="cls-13" d="M24.63,57.07s1.84-.77,4.24,2.23A11.29,11.29,0,0,1,24.63,57.07Z"/></g></g></g></svg>