<svg xmlns="http://www.w3.org/2000/svg" xmlns:xlink="http://www.w3.org/1999/xlink" viewBox="0 0 74.7 71.52"><defs><style>.cls-1{isolation:isolate;}.cls-2{fill:#c2c2d1;}.cls-2,.cls-3{fill-rule:evenodd;}.cls-3{fill:#ebe5e5;}.cls-4{fill:url(#Безымянный_градиент_4);}.cls-10,.cls-11,.cls-12,.cls-13,.cls-14,.cls-5,.cls-7,.cls-8,.cls-9{mix-blend-mode:multiply;}.cls-5{opacity:0.4;fill:url(#Безымянный_градиент_58);}.cls-6{fill:#ffd6bd;mix-blend-mode:soft-light;}.cls-7{fill:#ac6595;opacity:0.8;}.cls-10,.cls-11,.cls-13,.cls-14,.cls-8,.cls-9{opacity:0.3;}.cls-8{fill:url(#Безымянный_градиент_117);}.cls-9{fill:url(#Безымянный_градиент_117-2);}.cls-10{fill:url(#Безымянный_градиент_117-3);}.cls-11{fill:url(#Безымянный_градиент_117-4);}.cls-12{fill:#c9658b;opacity:0.68;}.cls-13{fill:url(#Безымянный_градиент_5);}.cls-14{fill:url(#Безымянный_градиент_5-2);}</style><linearGradient id="Безымянный_градиент_4" x1="37.35" y1="62.93" x2="37.35" y2="8.25" gradientUnits="userSpaceOnUse"><stop offset="0.03" stop-color="#ff9b86"/><stop offset="0.22" stop-color="#ffa17b"/><stop offset="0.49" stop-color="#ffa572"/><stop offset="0.95" stop-color="#ffa670"/></linearGradient><linearGradient id="Безымянный_градиент_58" x1="37.56" y1="47.73" x2="37.56" y2="39.38" gradientUnits="userSpaceOnUse"><stop offset="0.01" stop-color="#ca00a4"/><stop offset="1" stop-color="#ffd3c4"/></linearGradient><linearGradient id="Безымянный_градиент_117" x1="25.4" y1="43.15" x2="25.4" y2="35.88" gradientUnits="userSpaceOnUse"><stop offset="0" stop-color="#ffc2b3"/><stop offset="0.99" stop-color="#ca00a4"/></linearGradient><linearGradient id="Безымянный_градиент_117-2" x1="49.65" y1="43.15" x2="49.65" y2="35.88" xlink:href="#Безымянный_градиент_117"/><linearGradient id="Безымянный_градиент_117-3" x1="31.59" y1="45.18" x2="31.59" y2="40.23" xlink:href="#Безымянный_градиент_117"/><linearGradient id="Безымянный_градиент_117-4" x1="44.76" y1="45.88" x2="44.76" y2="40.95" xlink:href="#Безымянный_градиент_117"/><linearGradient id="Безымянный_градиент_5" x1="35.14" y1="52.42" x2="40.23" y2="52.42" gradientUnits="userSpaceOnUse"><stop offset="0" stop-color="#fff"/><stop offset="0.99" stop-color="#ca00a4"/></linearGradient><linearGradient id="Безымянный_градиент_5-2" x1="42" y1="23.8" x2="48.77" y2="23.8" xlink:href="#Безымянный_градиент_5"/></defs><g class="cls-1"><g id="Capa_2" data-name="Capa 2"><g id="objects"><path class="cls-2" d="M3.19,4.93S-4,30.22,3.19,66.84c0,0,34.16,10.53,68.6,0,0,0,7.12-31.16-.9-61.42C70.89,5.42,38.5-2.86,3.19,4.93Z"/><path class="cls-3" d="M3.19,3.34S-4,28.62,3.19,65.25c0,0,34.16,10.53,68.6,0,0,0,7.12-31.16-.9-61.42C70.89,3.83,38.5-4.45,3.19,3.34Z"/><circle class="cls-4" cx="37.35" cy="35.59" r="27.34"/><path class="cls-5" d="M25,43.15a5.33,5.33,0,0,0,4,2.3h.74s-2.22-1.4-.89-1.7,2.59,2.15,3.69,2.88,5,1.11,5,1.11,3.91-.37,5-1.11,2.37-3.17,3.7-2.88-.89,1.7-.89,1.7h.74a5.33,5.33,0,0,0,4-2.3C41.83,38.25,33.56,38,25,43.15Z"/><path class="cls-6" d="M31,38.06c.4,1.46,4.82-.2,9.25.79s5,1.73,5.44,1.61-3-7.84-7.75-7.72S30.88,37.67,31,38.06Z"/><path class="cls-7" d="M43.41,45.85s2.94-.93,3.22-1.52a4.74,4.74,0,0,0,.31-.78S44.91,43.18,43.41,45.85Z"/><path class="cls-7" d="M28.77,44.69A9.88,9.88,0,0,0,32,46.12s-1.5-2.44-2.64-2.57S28,44.06,28.77,44.69Z"/><path class="cls-8" d="M25,43.15s-2.21-4.6,1.52-7.27A7.35,7.35,0,0,0,25,43.15Z"/><path class="cls-9" d="M50.16,43.15s1.45-5.09-1.39-7.27C48.77,35.88,50.71,38.27,50.16,43.15Z"/><path class="cls-10" d="M32.87,45.18a12.5,12.5,0,0,1-2.57-4.47l1.29-.48S31.07,42,32.87,45.18Z"/><path class="cls-11" d="M43,45.88A17.66,17.66,0,0,0,45.7,41l.79.33A20,20,0,0,1,43,45.88Z"/><path class="cls-12" d="M25,43.11c.76.89,3-1.51,7.32-2.63s10.53-.78,13.35.79a15.37,15.37,0,0,0,4.53,1.84s-4,7.68-12.81,7.68S25,43.11,25,43.11Z"/><path class="cls-13" d="M35.14,57.2s3.2.75,5.09,0l-.63-9.89H35.33Z"/><path class="cls-14" d="M48.77,35.11S46.45,31.82,43,31.44L42,12.5Z"/></g></g></g></svg>