<svg xmlns="http://www.w3.org/2000/svg" xmlns:xlink="http://www.w3.org/1999/xlink" viewBox="0 0 74.7 71.52"><defs><style>.cls-1{isolation:isolate;}.cls-2{fill:#c2c2d1;}.cls-2,.cls-3,.cls-8{fill-rule:evenodd;}.cls-3{fill:#ebe5e5;}.cls-4{fill:url(#Безымянный_градиент_4);}.cls-10,.cls-11,.cls-5,.cls-6{mix-blend-mode:multiply;}.cls-5{opacity:0.5;fill:url(#Безымянный_градиент_103);}.cls-6{opacity:0.3;fill:url(#Безымянный_градиент_103-2);}.cls-7{fill:url(#Безымянный_градиент_109);}.cls-8{fill:url(#Безымянный_градиент_50);}.cls-9{fill:url(#Безымянный_градиент_73);}.cls-10{fill:#a16595;opacity:0.68;}.cls-11{fill:#e56595;opacity:0.8;}.cls-12{fill:#fff;}</style><linearGradient id="Безымянный_градиент_4" x1="37.48" y1="63.46" x2="37.48" y2="8.77" gradientUnits="userSpaceOnUse"><stop offset="0.03" stop-color="#ff9b86"/><stop offset="0.22" stop-color="#ffa17b"/><stop offset="0.49" stop-color="#ffa572"/><stop offset="0.95" stop-color="#ffa670"/></linearGradient><linearGradient id="Безымянный_градиент_103" x1="-510.14" y1="30.96" x2="-481.6" y2="30.96" gradientTransform="matrix(-1, 0, 0, 1, -457.97, 0)" gradientUnits="userSpaceOnUse"><stop offset="0" stop-color="#fff"/><stop offset="0.99" stop-color="#ca00a4"/></linearGradient><linearGradient id="Безымянный_градиент_103-2" x1="-508.52" y1="46.97" x2="-478.48" y2="46.97" xlink:href="#Безымянный_градиент_103"/><linearGradient id="Безымянный_градиент_109" x1="-494.97" y1="39.28" x2="-494.97" y2="20.29" gradientTransform="matrix(-1, 0, 0, 1, -457.97, 0)" gradientUnits="userSpaceOnUse"><stop offset="0" stop-color="#64003c"/><stop offset="1" stop-color="#a6252f"/></linearGradient><radialGradient id="Безымянный_градиент_50" cx="-495.45" cy="35.76" r="13.82" gradientTransform="matrix(-1, 0, 0, 1, -457.97, 0)" gradientUnits="userSpaceOnUse"><stop offset="0.03" stop-color="#fff0eb"/><stop offset="0.98" stop-color="#ffe7e9"/></radialGradient><linearGradient id="Безымянный_градиент_73" x1="-498.42" y1="48.79" x2="-498.42" y2="31.93" gradientTransform="matrix(-1, 0, 0, 1, -457.97, 0)" gradientUnits="userSpaceOnUse"><stop offset="0.02" stop-color="#8c7c4c"/><stop offset="1" stop-color="#514c4e"/></linearGradient></defs><g class="cls-1"><g id="Capa_2" data-name="Capa 2"><g id="objects"><path class="cls-2" d="M3.19,4.93S-4,30.22,3.19,66.84c0,0,34.16,10.53,68.6,0,0,0,7.12-31.16-.9-61.42C70.89,5.42,38.5-2.86,3.19,4.93Z"/><path class="cls-3" d="M3.19,3.34S-4,28.62,3.19,65.25c0,0,34.16,10.53,68.6,0,0,0,7.12-31.16-.9-61.42C70.89,3.83,38.5-4.45,3.19,3.34Z"/><circle class="cls-4" cx="37.48" cy="36.11" r="27.34"/><path class="cls-5" d="M51.91,42.33s2.92-17.87-10.82-22C27.53,16.16,23.63,31.93,23.63,31.93Z"/><path class="cls-6" d="M50.56,48.48s-.74,1.65-12.24.31-15.48-2.14-17.81-1.61l3.41-2.56Z"/><path class="cls-7" d="M51.72,39.28s0-15.66-14.55-18.62c-13.74-2.79-16.55,10.79-14.08,15.1Z"/><path class="cls-8" d="M24.12,45.42c2.75.31,5.69.76,8.56,1.23,5.16.84,10.13,1.78,13.52,2.14,2.36.25,4,.22,4.36-.31,3.38-4.58,1.22-27.42-16.05-25.82C18.15,24.17,24.12,45.42,24.12,45.42Z"/><path class="cls-9" d="M31,41.34a9.4,9.4,0,0,0,1.64,5.31c5.16.84,10.13,1.78,13.52,2.14A9.41,9.41,0,1,0,31,41.34Z"/><circle class="cls-10" cx="40.45" cy="41.33" r="5.86"/><path class="cls-11" d="M51.91,43.89s-2.46,4.54-5,5c0,0,3,.47,3.7-.37S51.91,43.89,51.91,43.89Z"/><path class="cls-12" d="M30.22,36.87a1.95,1.95,0,1,0,2-1.94A1.95,1.95,0,0,0,30.22,36.87Z"/></g></g></g></svg>