<svg xmlns="http://www.w3.org/2000/svg" xmlns:xlink="http://www.w3.org/1999/xlink" viewBox="0 0 74.7 71.52"><defs><style>.cls-1{isolation:isolate;}.cls-2{fill:#c2c2d1;}.cls-2,.cls-3,.cls-4,.cls-5,.cls-6,.cls-7,.cls-8{fill-rule:evenodd;}.cls-3{fill:#ebe5e5;}.cls-4{fill:url(#Безымянный_градиент_43);}.cls-5,.cls-6,.cls-7,.cls-8{mix-blend-mode:multiply;}.cls-5,.cls-6{opacity:0.3;}.cls-5{fill:url(#Безымянный_градиент_103);}.cls-6{fill:url(#Безымянный_градиент_103-2);}.cls-7{opacity:0.5;fill:url(#Безымянный_градиент_107);}.cls-8{fill:#c9658b;opacity:0.68;}</style><linearGradient id="Безымянный_градиент_43" x1="-12.91" y1="52.31" x2="-12.91" y2="13.71" gradientTransform="matrix(-1, 0, 0, 1, 22.89, 0)" gradientUnits="userSpaceOnUse"><stop offset="0.03" stop-color="#ff9b86"/><stop offset="0.95" stop-color="#ffa670"/></linearGradient><linearGradient id="Безымянный_градиент_103" x1="-18.44" y1="43.23" x2="-7.59" y2="24.43" gradientTransform="matrix(-1, 0, 0, 1, 22.89, 0)" gradientUnits="userSpaceOnUse"><stop offset="0" stop-color="#fff"/><stop offset="0.99" stop-color="#ca00a4"/></linearGradient><linearGradient id="Безымянный_градиент_103-2" x1="-20.89" y1="41.96" x2="-13.53" y2="29.22" xlink:href="#Безымянный_градиент_103"/><linearGradient id="Безымянный_градиент_107" x1="-21.59" y1="52.71" x2="-15.13" y2="41.51" gradientTransform="matrix(-1, 0, 0, 1, 22.89, 0)" gradientUnits="userSpaceOnUse"><stop offset="0.01" stop-color="#ca00a4"/><stop offset="1" stop-color="#fff"/></linearGradient></defs><g class="cls-1"><g id="Capa_2" data-name="Capa 2"><g id="objects"><path class="cls-2" d="M3.19,4.93S-4,30.22,3.19,66.84c0,0,34.16,10.53,68.6,0,0,0,7.12-31.16-.9-61.42C70.89,5.42,38.5-2.86,3.19,4.93Z"/><path class="cls-3" d="M3.19,3.34S-4,28.62,3.19,65.25c0,0,34.16,10.53,68.6,0,0,0,7.12-31.16-.9-61.42C70.89,3.83,38.5-4.45,3.19,3.34Z"/><path class="cls-4" d="M44.23,21.18c-2-3.36-7-9.5-15.11-6.8s-8.46,19.45-1.27,29.11S44,53,46.31,51.71s2.55-6,2.55-6S48.08,27.76,44.23,21.18Z"/><path class="cls-5" d="M45.33,30.73s-5.41-7.13-12.54-7-9.08,16.17.86,22.36c0,0-4.31-2.53-4-9.9s4.28-9.4,6.41-8.12-2.35,4.17-1.92,9.4,4.16,7,6.73,6-1.18-7.82-.22-10.42,4.67-1.66,4.67-1.66Z"/><path class="cls-6" d="M45.33,30.73s-2.74-3.12-5.73-3-5,4.76-5.47,9.46,5.78,8.25,7.17,6-1.49-7.59-.64-10.14,4.67-1.66,4.67-1.66Z"/><path class="cls-7" d="M48.72,47V41.68s-1.82,8.13-6.56,9c-6.36,1.11-12.1-4.52-12.1-4.52s4.55,4.88,9.66,5.8S48,52.55,48.72,47Z"/><path class="cls-8" d="M40.66,33.05s-4.35-.95-4.86,3.65,5.88,5,5.88,5a8.63,8.63,0,0,0-.7-3.94A8.19,8.19,0,0,1,40.66,33.05Z"/></g></g></g></svg>