<svg xmlns="http://www.w3.org/2000/svg" xmlns:xlink="http://www.w3.org/1999/xlink" viewBox="0 0 74.7 71.52"><defs><style>.cls-1{isolation:isolate;}.cls-2{fill:#c2c2d1;}.cls-2,.cls-3,.cls-4,.cls-5,.cls-6,.cls-7,.cls-8,.cls-9{fill-rule:evenodd;}.cls-3{fill:#ebe5e5;}.cls-4{fill:url(#Безымянный_градиент_105);}.cls-5,.cls-6,.cls-7,.cls-9{mix-blend-mode:multiply;}.cls-5{opacity:0.2;fill:url(#Безымянный_градиент_107);}.cls-6,.cls-9{opacity:0.3;}.cls-6{fill:url(#Безымянный_градиент_107-2);}.cls-7{fill:#d16595;opacity:0.68;}.cls-8{fill:#ffc3a4;}.cls-9{fill:url(#Безымянный_градиент_107-3);}</style><linearGradient id="Безымянный_градиент_105" x1="37.35" y1="52.41" x2="37.35" y2="21.65" gradientUnits="userSpaceOnUse"><stop offset="0.03" stop-color="#ff9b86"/><stop offset="0.22" stop-color="#ffa17b"/><stop offset="0.49" stop-color="#ffa572"/><stop offset="0.95" stop-color="#ffa670"/></linearGradient><linearGradient id="Безымянный_градиент_107" x1="25.99" y1="52.6" x2="25.99" y2="21.65" gradientUnits="userSpaceOnUse"><stop offset="0.01" stop-color="#ca00a4"/><stop offset="1" stop-color="#fff"/></linearGradient><linearGradient id="Безымянный_градиент_107-2" x1="-314.16" y1="47.44" x2="-309.61" y2="47.44" gradientTransform="matrix(-1, 0, 0, 1, -272.07, 0)" xlink:href="#Безымянный_градиент_107"/><linearGradient id="Безымянный_градиент_107-3" x1="13.16" y1="50.17" x2="30.36" y2="50.17" xlink:href="#Безымянный_градиент_107"/></defs><g class="cls-1"><g id="Capa_2" data-name="Capa 2"><g id="objects"><path class="cls-2" d="M3.19,4.93S-4,30.22,3.19,66.84c0,0,34.16,10.53,68.6,0,0,0,7.12-31.16-.9-61.42C70.89,5.42,38.5-2.86,3.19,4.93Z"/><path class="cls-3" d="M3.19,3.34S-4,28.62,3.19,65.25c0,0,34.16,10.53,68.6,0,0,0,7.12-31.16-.9-61.42C70.89,3.83,38.5-4.45,3.19,3.34Z"/><path class="cls-4" d="M62.85,51.69s-1,.07-2.82.15h0c-1.41.07-3.3.16-5.53.24-1.64.07-3.46.13-5.41.17-2.19.06-4.56.11-7,.12H39.87c-2.46,0-5,0-7.49-.07h-.11a181.59,181.59,0,0,1-19.11-1.25V51A154,154,0,0,1,11,28.58c.52-.34,16.09-10.24,26.52-5.78l.32-.24c1,4.4,2,5.55,3.12,8.85,0,0,9.83,8,15.24,11.55a80.19,80.19,0,0,1,7.38,5.28A4.22,4.22,0,0,1,62.85,51.69Z"/><path class="cls-5" d="M18.85,48.92s4.83,3,13.42,3.4h.11c.57,0,1.17,0,1.78,0,0,0-7.91,1-21-1.3V51A154,154,0,0,1,11,28.58c.52-.34,16.09-10.24,26.52-5.78l.32-.24c1,4.4,2,5.55,3.12,8.85a21.85,21.85,0,0,0-16.41,4.05C18.77,39.71,18.85,48.92,18.85,48.92Z"/><path class="cls-6" d="M39.87,52.41a17.75,17.75,0,0,0-2.34-9.94,12.81,12.81,0,0,1,4.55,9.92Z"/><path class="cls-7" d="M49.09,52.27a11.54,11.54,0,0,0-3.57-7.09A6.47,6.47,0,0,1,49.09,52.27Z"/><path class="cls-7" d="M54.51,52.1a9.74,9.74,0,0,0-3.82-7.91A17.29,17.29,0,0,1,54.51,52.1Z"/><path class="cls-7" d="M60,51.85a6.51,6.51,0,0,0-2.83-6.67S59.43,47.21,60,51.85Z"/><path class="cls-8" d="M37.53,44.19s-5-1.23-8.72,0L28,43.65S30.5,39.18,37.53,44.19Z"/><path class="cls-8" d="M47,48.51l-4.24-.37s-1.14-3,.83-3S47,48.51,47,48.51Z"/><path class="cls-8" d="M52.6,48.72H49.52s-1-2.75.55-2.56S52.6,48.72,52.6,48.72Z"/><path class="cls-8" d="M58.67,48.72l-3.87-.21s-.73-2.31.86-2.36S58.67,48.72,58.67,48.72Z"/><path class="cls-8" d="M62.64,48.72l-2.49-.21s-.71-1.07.86-1.07A1.43,1.43,0,0,1,62.64,48.72Z"/><path class="cls-9" d="M30.36,52.27c-9.47-1.64-9.85-4-11.93-4.19s-5.27,3-5.27,3Z"/></g></g></g></svg>