<svg xmlns="http://www.w3.org/2000/svg" viewBox="0 0 395.2 210.64"><defs><style>.cls-1{fill:#c51a33;}.cls-2{fill:#e12437;}</style></defs><g id="Capa_2" data-name="Capa 2"><g id="TEXT"><path class="cls-1" d="M140.57,174.89c0,9.32.05,18.64.16,28,0,3-.62,5.53-3.45,7.08-3,1.66-5.3.13-7.58-1.66Q100,185,70.36,161.67q-32.8-25.78-65.58-51.6A30.13,30.13,0,0,1,0,105.34v-4.8A199.73,199.73,0,0,1,16.87,87.76c1.71.14,2.9,1.33,4.11,2.28,19.14,15,38.21,30.19,57.36,45.23q25.29,19.86,50.72,39.56C134.43,179,134.45,179,140.57,174.89Z"/><path class="cls-2" d="M140.57,174.89c-6.12,4.09-6.14,4.12-11.51-.06q-25.38-19.76-50.72-39.56C59.19,120.23,40.12,105.09,21,90c-1.21-1-2.4-2.14-4.11-2.28q57-42.77,114-85.55c2.34-1.76,4.73-3.09,7.68-1.49,2.72,1.48,3.14,4,3.13,6.82,0,19.44.06,38.88-.1,58.32,0,3.38.62,4.43,4.28,4.42q69.72-.23,139.43-.09c20,0,39.18,3.34,56.9,13.12C360.63,93.5,373.74,108.67,383,127.4c1.69,3.45,3.53,6.87,4.43,10.66a9.72,9.72,0,0,1-3.78-2.12,157.41,157.41,0,0,0-21-13.65c-22.55-12.25-47-17.27-72.34-17.62-37.43-.51-74.87-.29-112.3,0-6.8.06-13.79.06-20.47,2.24-7.51,2.44-13,6.87-15.67,14.58-1.82,5.23-.73,10.55-1.07,15.82Z"/><path class="cls-1" d="M140.75,137.32c.34-5.27-.75-10.59,1.07-15.82,2.67-7.71,8.16-12.14,15.67-14.58,6.68-2.18,13.67-2.18,20.47-2.24,37.43-.3,74.87-.52,112.3,0,25.32.35,49.79,5.37,72.34,17.62a157.41,157.41,0,0,1,21,13.65,9.72,9.72,0,0,0,3.78,2.12c3.74,8.25,5.73,17,7.58,25.84.58,2.72.16,5.34-2.59,6.95s-5.35.94-7.69-1a132.23,132.23,0,0,0-42.14-23.57,168.28,168.28,0,0,0-54.37-8.9C239,137.21,189.89,137.32,140.75,137.32Z"/></g></g></svg>