<svg xmlns="http://www.w3.org/2000/svg" viewBox="0 0 1284.47 600"><defs><style>.cls-1{isolation:isolate;}.cls-2{fill:#7fdede;}.cls-3{fill:#201744;}.cls-4{fill:#3d3887;}.cls-14,.cls-5{fill:#7777e9;}.cls-6{fill:#f0cc30;}.cls-13,.cls-14,.cls-7{mix-blend-mode:multiply;}.cls-8{mix-blend-mode:screen;}.cls-13,.cls-14,.cls-9{opacity:0.7;}.cls-10{fill:#fff;}.cls-11{fill:#d45b18;}.cls-12,.cls-13{fill:#79b67c;}.cls-15{fill:#cf2a43;}.cls-16{fill:none;}</style></defs><g class="cls-1"><g id="BACKGROUND"><rect class="cls-2" x="-1.49" y="-258.3" width="1287.45" height="858.3"/><path class="cls-3" d="M1041.19,332.69A127.82,127.82,0,0,1,1025,343.63l-.1-.19a28.21,28.21,0,0,1-1.31-7.32h0a169.51,169.51,0,0,1,16.88-5A.91.91,0,0,1,1041.19,332.69Z"/><path class="cls-3" d="M997.4,355.44a128.24,128.24,0,0,1-18.59,4.22.9.9,0,0,1-.58-1.67c6.3-3.89,12.39-7.29,18.17-10.21l.47-.15a15.74,15.74,0,0,1,.48,7.65Z"/><path class="cls-4" d="M946,394.87q-4.25-9.37-8.46-18.75l.33-.14a2,2,0,0,0,1.78.62c22.54-3.24,83.91-15.81,140.66-60.84a1.79,1.79,0,0,0,.67-1l.12,0c11.9,17.44,11.23,26.63,10.18,27.78-13.17,14.48-30.21,23.86-47.82,32.44-8.76,4.27-17.92,7.71-27.06,11.14-18.9,7.09-38.12,14.26-58.26,15.71-2.9.22-6.06.24-8.39-1.48C947.93,399.07,946.91,396.93,946,394.87Z"/><path class="cls-5" d="M1080.31,315.76c-56.75,45-118.12,57.6-140.66,60.84a2,2,0,0,1-1.78-.62,2.05,2.05,0,0,1,.44-3.14,537.87,537.87,0,0,1,56.26-30.47,22.37,22.37,0,0,1,2.3,5.26l-.47.15c-5.78,2.92-11.87,6.32-18.17,10.21a.9.9,0,0,0,.58,1.67,128.24,128.24,0,0,0,18.59-4.22A138.1,138.1,0,0,0,1025,343.63a127.82,127.82,0,0,0,16.24-10.94.91.91,0,0,0-.75-1.6,169.51,169.51,0,0,0-16.88,5h0a43.67,43.67,0,0,1,.18-6.74,389.72,389.72,0,0,1,54.86-17.2,2,2,0,0,1,2.4,2.61A1.79,1.79,0,0,1,1080.31,315.76Z"/><path class="cls-3" d="M994.34,341.37c-5.05,2.53-10.2,4.86-15.24,7.41q-8,4-15.84,8.34-8.4,4.61-16.63,9.5c-2.81,1.67-5.63,3.34-8.4,5.1-1.72,1.09-2.7,3.25-1.07,5,1.19,1.25,2.79.88,4.29.65,1.14-.17,2.27-.35,3.4-.54q4-.68,8-1.46,10.29-2.05,20.42-4.84a312.86,312.86,0,0,0,52.8-19.73,297.62,297.62,0,0,0,29.63-16.36q7.75-4.89,15.21-10.27,3.69-2.68,7.31-5.48c1.76-1.36,4.6-2.85,3.68-5.52-.69-2-2.6-2.16-4.37-1.74l-4.37,1.06q-5.52,1.38-11,2.9-15.26,4.27-30.13,9.78c-2.94,1.08-5.9,2.15-8.79,3.36-1.17.49-.65,2.42.54,1.93a324,324,0,0,1,31-10.82q10.74-3.25,21.67-5.88c.89-.22,4.37-1.38,3.61.79-.18.51-.76.81-1.16,1.13L1077,317.1c-1.29,1-2.6,2-3.91,3q-7,5.21-14.26,10a294,294,0,0,1-28.11,16.23,309.21,309.21,0,0,1-51.39,20.43,286.76,286.76,0,0,1-36.58,8.44,28.78,28.78,0,0,1-3,.46c-1.23.07-1.79-1-.87-1.88a9.39,9.39,0,0,1,1.69-1l2.31-1.42q7.81-4.74,15.76-9.23,14.64-8.25,29.76-15.58c2.33-1.12,4.7-2.18,7-3.33,1.15-.58.14-2.3-1-1.73Z"/><path class="cls-3" d="M995.9,346.92q-5.85,3-11.54,6.24-3,1.75-6,3.58c-1.15.71-2.22,1.94-1.11,3.25.87,1.05,2.31.57,3.47.38,1.5-.24,3-.51,4.49-.81q6.06-1.23,12-3a138.79,138.79,0,0,0,22.92-9.18,130.46,130.46,0,0,0,11.71-6.73q2.87-1.86,5.63-3.85c.91-.66,1.81-1.34,2.7-2a7.47,7.47,0,0,0,2.15-1.87,1.92,1.92,0,0,0-1.73-2.81,20,20,0,0,0-4.35,1.05c-4.36,1.17-8.67,2.54-12.92,4-1.21.42-.69,2.36.53,1.93,3.4-1.19,6.83-2.3,10.29-3.3,1.27-.36,2.54-.71,3.81-1l1.6-.41a6.25,6.25,0,0,1,.72-.17c.19,0,.27,0,.23-.19l-.57.46a127.55,127.55,0,0,1-19.74,12.65,134.09,134.09,0,0,1-38.72,13.14l-1.67.28-.76.11.13,0,.84-.52q2.87-1.75,5.79-3.43c3.65-2.1,7.37-4.1,11.13-6,1.15-.58.14-2.3-1-1.72Z"/><path class="cls-3" d="M936.68,376.63,942,388.45l2.73,6a24.83,24.83,0,0,0,2.57,4.86c2.14,2.85,5.39,3.7,8.83,3.65a86.87,86.87,0,0,0,12-1.27c16.51-2.63,32.26-8.49,47.84-14.33,7.94-3,15.89-5.95,23.61-9.45,7-3.18,13.93-6.71,20.66-10.49a151.66,151.66,0,0,0,18.77-12.27,107,107,0,0,0,8.63-7.44q2-1.94,3.87-4a4,4,0,0,0,.93-1.34c.82-2.28.18-5.2-.36-7.46a56.67,56.67,0,0,0-6.77-15.38c-1.07-1.8-2.21-3.55-3.39-5.28-.71-1.06-2.45-.06-1.72,1a72.49,72.49,0,0,1,9,17c.92,2.72,1.88,5.9,1.47,8.81,0-.14-.26.9-.13.6-.06.14-.21.29,0,.08-.54.59-1.08,1.17-1.63,1.75a100.11,100.11,0,0,1-7.89,7.38,132.34,132.34,0,0,1-17.77,12.4,267.72,267.72,0,0,1-41.78,19.79c-14.95,5.68-30,11.54-45.63,15-3.94.88-7.92,1.61-11.93,2.11-3.53.44-7.62,1.22-11.14.39-3.88-.91-5.19-4.63-6.67-7.9q-2.58-5.69-5.14-11.38l-2.61-5.8c-.53-1.18-2.26-.16-1.73,1Z"/><path class="cls-3" d="M996.4,348.78a1,1,0,0,0,0-2,1,1,0,0,0,0,2Z"/><path class="cls-3" d="M982.13,399a140.2,140.2,0,0,1,8.42,15.77c2.26,5,5.11,10.33,3.7,15.94a14,14,0,0,1-9.51,10c-4.11,1.29-8.17,2.68-12.14,4.35a104.27,104.27,0,0,0-26.22,15.59,70.18,70.18,0,0,0-15.7,17.53c-5,8.25-7.57,17.71-8.61,27.23A104.53,104.53,0,0,0,924,537.84a135.91,135.91,0,0,0,12,33.75,143.58,143.58,0,0,0,21.88,31.62,135.22,135.22,0,0,0,31.18,25.35,131.23,131.23,0,0,0,40.12,15.4,150.66,150.66,0,0,0,48.86,1.64c19.24-2.4,38-8,55.88-15.38a209.11,209.11,0,0,0,46.76-26.31A161.82,161.82,0,0,0,1213,571.64a142.48,142.48,0,0,0,27.77-73.41,146.22,146.22,0,0,0-1.43-36.07,138.84,138.84,0,0,0-9.57-32.78,113.74,113.74,0,0,0-16.09-26.76,79.8,79.8,0,0,0-21.05-18.48A90,90,0,0,0,1159,372.27a83.68,83.68,0,0,0-30.49,1.65,99,99,0,0,0-23.73,9.16c-3.16,1.7-6.1,3.76-9.22,5.51a13.89,13.89,0,0,1-13,.18c-4.8-2.47-6.67-7.14-8.38-12a77.94,77.94,0,0,1-3.68-15.23c-.17-1.27-2.1-.73-1.92.54a77.76,77.76,0,0,0,3.84,15.7c1.7,4.71,3.57,9.23,7.94,12a16.06,16.06,0,0,0,12.31,2c3.72-.91,6.8-3.45,10.06-5.34,15.69-9.1,33.77-14.17,52-12.7a86.09,86.09,0,0,1,34.65,10.81,72.62,72.62,0,0,1,12.28,8.5,94,94,0,0,1,18.64,22.37,125.92,125.92,0,0,1,13.06,29.7,143.89,143.89,0,0,1,2.65,71.12A140.1,140.1,0,0,1,1222.47,553a147.61,147.61,0,0,1-25.61,34.25,179,179,0,0,1-39.26,29.37,237.42,237.42,0,0,1-53.87,21.86,170.88,170.88,0,0,1-52.41,6.22,135.08,135.08,0,0,1-44-9.38,129.79,129.79,0,0,1-35.13-21.15,138.75,138.75,0,0,1-25.91-29A140.33,140.33,0,0,1,930,552a118.73,118.73,0,0,1-6.33-33.1,80.07,80.07,0,0,1,4-29.64c4.57-13,14-23.16,25.08-31.07a108.21,108.21,0,0,1,26.36-13.61c4.06-1.46,8.46-2.26,11.86-5.07a16,16,0,0,0,5.7-11.61,16.39,16.39,0,0,0-1.18-6.57c-1.08-2.81-2.26-5.59-3.52-8.32a139,139,0,0,0-8.09-15.07c-.67-1.09-2.4-.09-1.73,1Z"/><path class="cls-6" d="M962.86,529.83a8.7,8.7,0,0,0,4.34,2.9c17.34,6.16,52.94,3.57,78.44-2,51.92-11.35,82-32.41,118.72-57.73,14.73-10.16,27.75-20.69,34.17-32.15,22.87,36.8,12.72,78.43-6.66,104.61s-77.57,68.83-146.06,64.64-83.62-79.54-83.62-79.54Z"/><g class="cls-7"><path class="cls-6" d="M1198.53,440.84c-.14.26-.31.52-.46.78,6.66,29.06-2.75,58.15-17.59,78.2-19.36,26.17-77.57,68.83-146.06,64.64-36.51-2.24-57.86-24.69-69.83-45.17,6.4,20,27.22,67.49,81.22,70.8,68.49,4.19,126.7-38.47,146.06-64.64S1221.4,477.64,1198.53,440.84Z"/></g><path class="cls-6" d="M1195.67,431.93c3.09,1.63,4.56,5.87,2.86,8.91-6.42,11.46-19.44,22-34.17,32.15-36.74,25.32-66.8,46.38-118.72,57.73-25.5,5.58-61.1,8.17-78.44,2a8.7,8.7,0,0,1-4.34-2.9,5.58,5.58,0,0,1-.74-1.58,3.12,3.12,0,0,1,.09-2.24c1.17-2.3,7.36-7.5,9.84-8.84,40.8-22.17,84.11-15.43,125.81-32.18,58.14-23.37,58.33-34.16,84.09-50.23C1186.17,432.13,1191.82,429.9,1195.67,431.93Z"/><g class="cls-8"><path class="cls-6" d="M1195.67,431.93c3.09,1.63,4.56,5.87,2.86,8.91-6.42,11.46-19.44,22-34.17,32.15-36.74,25.32-66.8,46.38-118.72,57.73-25.5,5.58-61.1,8.17-78.44,2a8.7,8.7,0,0,1-4.34-2.9,5.58,5.58,0,0,1-.74-1.58,3.12,3.12,0,0,1,.09-2.24c1.17-2.3,7.36-7.5,9.84-8.84,40.8-22.17,84.11-15.43,125.81-32.18,58.14-23.37,58.33-34.16,84.09-50.23C1186.17,432.13,1191.82,429.9,1195.67,431.93Z"/></g><path class="cls-3" d="M1199.4,441.34a7.83,7.83,0,0,0-2.94-10.12c-4-2.38-9.18-.48-12.92,1.48a100.78,100.78,0,0,0-14.06,9.5c-7.62,5.84-14.84,12.16-22.86,17.49-13.6,9-28.59,15.9-43.64,22.13a187.24,187.24,0,0,1-32.13,10.2c-10.56,2.29-21.26,3.81-31.94,5.38-21.65,3.19-43.37,6.94-63.17,16.73a42.8,42.8,0,0,0-5.78,3.19,49.48,49.48,0,0,0-4.39,3.53,26.08,26.08,0,0,0-3.65,3.78,4.58,4.58,0,0,0-.28,5.1c1.81,3.47,6.47,4.49,10,5.32a81.32,81.32,0,0,0,11.49,1.74,173.55,173.55,0,0,0,27.83-.1,258.56,258.56,0,0,0,28.81-3.75A253.06,253.06,0,0,0,1096.8,515c16.32-7.37,31.67-16.61,46.56-26.51q11.64-7.72,23.07-15.75c8.86-6.18,17.66-12.75,25-20.72a59,59,0,0,0,8-10.7,1,1,0,0,0-1.73-1c-4.75,8.4-12,15.16-19.46,21.18-7.87,6.37-16.33,12-24.68,17.72-14.3,9.79-28.79,19.36-44.15,27.42A252.51,252.51,0,0,1,1000,535.23a121,121,0,0,1-25-1.51c-1.7-.31-3.39-.69-5-1.16a14.16,14.16,0,0,1-5.43-2.37,4.13,4.13,0,0,1-1.57-2.86,3,3,0,0,1,1-2.13,37.19,37.19,0,0,1,4-3.79,46.89,46.89,0,0,1,10.69-6.47,132.5,132.5,0,0,1,15.25-6.05,209.5,209.5,0,0,1,30.78-7.26c20.76-3.51,41.86-5.44,62-11.66,10.21-3.14,20.08-7.44,29.79-11.83,7.29-3.3,14.49-6.82,21.44-10.78a189.42,189.42,0,0,0,25.27-17.66c3.54-2.86,7.08-5.71,10.77-8.38,2.08-1.51,4.2-3,6.36-4.36,3.46-2.24,7.34-4.72,11.59-4.82a5.91,5.91,0,0,1,5.23,2.47,5.64,5.64,0,0,1,.49,5.72C1197.08,441.47,1198.8,442.48,1199.4,441.34Z"/><path class="cls-3" d="M961.23,530.81a83.58,83.58,0,0,0,2.67,9.59,130.74,130.74,0,0,0,9.69,22.33,105.28,105.28,0,0,0,19.24,25.43A82.49,82.49,0,0,0,1023.91,607c15.53,5.11,32.49,5.2,48.61,3.44a179.76,179.76,0,0,0,50.76-13.53,198.78,198.78,0,0,0,40.7-23.35c9.75-7.26,19.08-15.41,26.69-24.92a101.88,101.88,0,0,0,19.88-42.31,89.92,89.92,0,0,0-4.56-53.2,93.08,93.08,0,0,0-6.59-12.79c-.68-1.09-2.41-.09-1.73,1a86.71,86.71,0,0,1,12.63,53.28A100,100,0,0,1,1193.8,541c-6.49,9.74-14.94,18-23.94,25.46a194.59,194.59,0,0,1-37.1,23.91,184.53,184.53,0,0,1-48.37,16.33,160.3,160.3,0,0,1-27,2.7,110.34,110.34,0,0,1-24.2-2,79.34,79.34,0,0,1-33.45-15.85,96.84,96.84,0,0,1-21.12-24.26A125.91,125.91,0,0,1,967.27,544a105.6,105.6,0,0,1-4-13.13c0-.21-.09-.41-.13-.62-.26-1.26-2.19-.73-1.93.53Z"/><path class="cls-3" d="M1052.39,357.28a112.78,112.78,0,0,0,24.11-14.13c1-.77,0-2.51-1-1.72a113.2,113.2,0,0,1-24.11,14.13c-1.18.5-.16,2.23,1,1.72Z"/><path class="cls-3" d="M1080.9,335.93a1,1,0,0,0,0-2,1,1,0,0,0,0,2Z"/><path class="cls-3" d="M1063.65,386.11l1.92,4.22a1,1,0,0,0,1.37.36,1,1,0,0,0,.35-1.37l-1.91-4.22a1,1,0,0,0-1.37-.36,1,1,0,0,0-.36,1.37Z"/><path class="cls-3" d="M1059.39,389.32l1.91,4.22a1,1,0,0,0,1.37.36,1,1,0,0,0,.36-1.37l-1.91-4.22a1,1,0,0,0-1.37-.36,1,1,0,0,0-.36,1.37Z"/><path class="cls-3" d="M955.91,473.72l13.46-8.13a1,1,0,0,0-1-1.73L954.9,472a1,1,0,0,0,1,1.72Z"/><path class="cls-3" d="M978.86,461.14a1,1,0,0,0,0-2,1,1,0,0,0,0,2Z"/><g class="cls-9"><path class="cls-10" d="M1073.08,407.68c-.87,5.08,3.11,9.95,7.84,12s10,2.06,15.2,2.34a124.78,124.78,0,0,1,48.49,12.71c15.29,7.57,30.51,18.63,47.48,16.84a15.63,15.63,0,0,0,7.37-2.38,13.91,13.91,0,0,0,4-4.8c5.83-10.67,1.35-24.78-7.66-33s-21.44-11.43-33.53-12.77a133.81,133.81,0,0,0-19.51-.74c-10,.34-20,1.81-29.87,3.27l-33.82,5a19.44,19.44,0,0,0-5.79,1.48"/></g><g class="cls-9"><path class="cls-10" d="M1060.63,407.51c-2.4-.89-5.19.77-5.13,3.33a4.07,4.07,0,0,0,.07.61,5.69,5.69,0,0,0,4.17,4.11,4.41,4.41,0,0,0,2.78,0c2-.8,2.64-3.67,1.65-5.64C1063.63,408.82,1062,408,1060.63,407.51Z"/></g><path class="cls-11" d="M1030.65,551.18c-3.21-.38-6.65-.59-9.47,1a8.26,8.26,0,0,0-.61,14.07c2.2,1.49,5,1.83,7.64,1.84,3.09,0,6.39-.48,8.7-2.54a7.7,7.7,0,0,0-4.62-13.44Z"/><path class="cls-11" d="M1098.35,571.5c-4.31-4.48-12.28-2-12.65,4.25v.14a5.25,5.25,0,0,0,.38,2.52c1,2.08,3.77,2.44,6.08,2.51s4.57.09,6.29-1.27a5.39,5.39,0,0,0,1.49-6A7.87,7.87,0,0,0,1098.35,571.5Z"/><path class="cls-11" d="M1146.66,516.47a7.2,7.2,0,0,1,2.71,5.59,10.65,10.65,0,0,1-1.91,6,7.32,7.32,0,0,1-2.6,2.53,9.75,9.75,0,0,1-4.83.66c-1.65,0-3.44-.16-4.68-1.24a6.11,6.11,0,0,1-1.7-4,12.9,12.9,0,0,1,1-7.24,8.06,8.06,0,0,1,5.64-4.39C1143,513.92,1145,515.26,1146.66,516.47Z"/><path class="cls-4" d="M144.18,327.75a277.27,277.27,0,0,0,59.41,39.46,269.19,269.19,0,0,0,66.71,22.9,1.75,1.75,0,0,0,1.1-.1l0,.1c-5.15,18.68-12,23.66-13.39,23.62-18-.63-34.66-7-51.12-14.23-8.2-3.6-16-8-23.86-12.32-16.2-9-32.63-18.23-45.61-31.47-1.87-1.91-3.76-4.1-3.95-6.76-.13-2.06.78-4,1.67-5.91,2.69-5.68,5.41-11.36,8.1-17l.31,0A1.8,1.8,0,0,0,144.18,327.75Z"/><path class="cls-5" d="M271.79,386.76a369,369,0,0,0-39.31-24.87c-2,1-3.91,2.06-5.8,3.19,4.12,2.56,7.21,4.72,9.2,6.22a.82.82,0,0,1-.65,1.47,115.49,115.49,0,0,1-14.46-3.88,119.92,119.92,0,0,1-14.12-5.78A127.91,127.91,0,0,1,193.84,356a116,116,0,0,1-14.54-10.85.83.83,0,0,1,.81-1.41c5.59,1.8,10.83,3.73,15.67,5.72a52.55,52.55,0,0,0,1.07-5.34A495.23,495.23,0,0,0,146,324.57a1.9,1.9,0,0,0-2.45,1.46,1.8,1.8,0,0,0,.6,1.72,277.27,277.27,0,0,0,59.41,39.46,269.19,269.19,0,0,0,66.71,22.9,1.75,1.75,0,0,0,1.1-.1A1.89,1.89,0,0,0,271.79,386.76Z"/><path class="cls-3" d="M235.23,372.77a115.49,115.49,0,0,1-14.46-3.88q2.89-2,5.91-3.81c4.12,2.56,7.21,4.72,9.2,6.22A.82.82,0,0,1,235.23,372.77Z"/><path class="cls-3" d="M180.11,343.71c5.59,1.8,10.83,3.73,15.67,5.72-.55,2.25-1.23,4.46-1.94,6.54a116,116,0,0,1-14.54-10.85A.83.83,0,0,1,180.11,343.71Z"/><path class="cls-3" d="M197.69,343.38q-13-5.83-26.28-10.93-7.09-2.71-14.28-5.21c-2.51-.88-5-1.73-7.56-2.57-1.82-.6-4.25-2-6-.51a2.88,2.88,0,0,0-.13,4.29c.77.77,1.65,1.45,2.48,2.16q3.13,2.68,6.38,5.27,8.53,6.81,17.61,12.91a286,286,0,0,0,48.63,26.38,275.1,275.1,0,0,0,26.74,9.69q7.11,2.16,14.35,3.92c2.51.61,5,1.19,7.57,1.72,1.84.39,4.18,1.33,5.62-.37,2.33-2.75-1.36-4.83-3.28-6.21q-3.81-2.71-7.69-5.32c-7.23-4.85-14.65-9.43-22.19-13.78-2.22-1.29-4.46-2.55-6.7-3.79-1.13-.63-2.14,1.1-1,1.72a372.37,372.37,0,0,1,37.91,23.86,10,10,0,0,1,1.34,1,.91.91,0,0,1,.27,1c-.26.75-1,.57-1.64.46-2.32-.45-4.63-1-6.94-1.51q-6.85-1.59-13.62-3.54-12.81-3.7-25.2-8.67a282.48,282.48,0,0,1-46.55-23.9,263,263,0,0,1-31-22.9c-.64-.56-2.77-1.92-1.65-2.82.74-.6,2.66.44,3.45.7l3.7,1.23q6.87,2.32,13.66,4.83,12.8,4.74,25.3,10.16,2.85,1.25,5.68,2.52c1.17.52,2.19-1.2,1-1.73Z"/><path class="cls-3" d="M196.15,348.5c-3.47-1.16-6.84-2.7-10.3-3.91a35.8,35.8,0,0,0-5.61-1.86,1.85,1.85,0,0,0-2.23,1.7c0,1.13,1.05,1.82,1.81,2.47,1,.83,2,1.65,3,2.45q3.94,3.12,8.12,5.91a123.88,123.88,0,0,0,41.44,17.93c1.36.3,3.5,1.24,4.52-.19.86-1.22,0-2.24-1-2.95q-1.85-1.37-3.75-2.64a46.09,46.09,0,0,0-5-3.22c-1.15-.58-2.17,1.15-1,1.72a57.91,57.91,0,0,1,6.91,4.54l1.27.91a4,4,0,0,0,.67.49c.07,0,.71.21.06-.14a11.37,11.37,0,0,0-2.36-.5c-.93-.21-1.86-.44-2.78-.67a118.38,118.38,0,0,1-18.42-6.3,122.52,122.52,0,0,1-29.69-18.31l-1.22-1c-.08-.07-.29-.3-.37-.32-.15-.24-.26-.2-.34.11l.7.22q2.63.86,5.22,1.77c3.31,1.17,6.54,2.65,9.86,3.76,1.22.4,1.75-1.53.53-1.93Z"/><path class="cls-3" d="M142.41,325.49l-5.34,11.22-2.55,5.38a18.84,18.84,0,0,0-1.94,5.28c-.46,3.21,1.24,5.9,3.33,8.17a87.51,87.51,0,0,0,7.87,7.41c10.88,9.25,23.29,16.44,35.71,23.38,6.88,3.85,13.75,7.73,20.84,11.2,6.75,3.31,13.73,6.24,20.76,8.9a140.12,140.12,0,0,0,21.32,6.38,98.13,98.13,0,0,0,11.05,1.64,29.85,29.85,0,0,0,4.62.28,2.93,2.93,0,0,0,1-.28c2.45-1.13,4.3-3.78,5.72-5.95,3.59-5.48,5.81-11.85,7.56-18.12a1,1,0,0,0-1.93-.53A67.33,67.33,0,0,1,264,406c-1.33,2.24-3,4.84-5.15,6.27a6,6,0,0,1-.77.45c.27-.13-.05,0-.14,0s.14,0,.14,0l-1,0a87.83,87.83,0,0,1-10.84-1.18,125.92,125.92,0,0,1-20.37-5.44,260.56,260.56,0,0,1-40.25-18.59c-11.93-6.63-24-13.24-34.88-21.47-3.06-2.31-6-4.76-8.85-7.36-1.39-1.27-2.75-2.58-4.05-3.93a12.27,12.27,0,0,1-3.11-4.5c-.66-2,0-4,.88-5.87s1.82-3.83,2.73-5.74c1.91-4,3.84-8.07,5.75-12.11.55-1.16-1.17-2.17-1.72-1Z"/><path class="cls-3" d="M144.37,361.74q-1.85,3.86-3.67,7.72-5,10.53-9.95,21.09-7.27,15.49-14.49,31-8.78,18.92-17.45,37.88Q89.42,480,80.19,500.62T62,542q-8.22,19-16.08,38.19c-4.3,10.56-8.5,21.17-12.35,31.9a119.08,119.08,0,0,0-4.69,14.55,41.57,41.57,0,0,0,.25,19.21C32.25,658,40.87,668,51.32,674.61c10.66,6.74,23.69,10.32,36.3,9a43.17,43.17,0,0,0,31.85-18.95c5.24-7.81,9.69-16.23,14.17-24.49,5.88-10.84,11.54-21.79,17.11-32.79q9.66-19,19-38.24,9.84-20.19,19.48-40.47,9.27-19.46,18.39-39,8-17.16,16-34.35,6-13,12-26.06,3.33-7.26,6.63-14.53l.86-1.88c.52-1.16-1.2-2.18-1.73-1-1.15,2.54-2.3,5.07-3.46,7.61q-4.69,10.31-9.44,20.6-7,15.15-14,30.29-8.53,18.34-17.16,36.66-9.39,19.89-18.91,39.71t-19.24,39.47q-8.93,18-18.17,35.89c-5.07,9.75-10.23,19.46-15.68,29-2.09,3.66-4.23,7.3-6.46,10.88a42,42,0,0,1-13.58,13.78c-10.75,6.58-24,7.45-36.06,4.36s-23.56-10.16-31-20.28a40.6,40.6,0,0,1-6.44-36.13c2.9-9.63,6.65-19.06,10.31-28.41,4.68-12,9.59-23.86,14.6-35.7Q65.11,539.54,74,519.56q9.1-20.62,18.42-41.16,8.92-19.72,18-39.37,7.91-17.13,15.89-34.22,6.06-12.94,12.16-25.87,3.39-7.19,6.79-14.34c.3-.62.59-1.24.88-1.85.56-1.16-1.17-2.17-1.72-1Z"/><path class="cls-3" d="M215.12,391.21l2-4.33a1,1,0,1,0-1.73-1l-2,4.33a1,1,0,0,0,.36,1.37,1,1,0,0,0,1.37-.36Z"/><path class="cls-3" d="M222.81,394.84l2.27-4.81a1,1,0,0,0-.36-1.37,1,1,0,0,0-1.37.36l-2.27,4.81a1,1,0,0,0,1.73,1Z"/><path class="cls-3" d="M149.31,388.36l-6.13,13c-.54,1.16,1.18,2.18,1.73,1l6.12-13c.55-1.16-1.17-2.17-1.72-1Z"/><path class="cls-3" d="M139.74,412a1,1,0,0,0,0-2,1,1,0,0,0,0,2Z"/><path class="cls-12" d="M133.47,433c9.2,21,29.88,34.67,51.07,43.37,2.45,1,5.06,2,7.65,1.57,0,0-79,170.25-93.36,179.48s-46,1.79-49.6-23.72C46.25,612.6,133.47,433,133.47,433Z"/><path class="cls-12" d="M196.91,472.61c.38,2.61-2.11,4.94-4.72,5.36s-5.2-.57-7.65-1.57c-21.19-8.7-41.87-22.4-51.07-43.37,0,0-.95-2.75.94-3.68s4.16-.32,6.06.55c12,5.48,10.77,18.63,27.83,27.54,8.08,4.2,17.3,6,25,10.79C195,469.28,196.64,470.67,196.91,472.61Z"/><g class="cls-8"><path class="cls-12" d="M196.91,472.61c.38,2.61-2.11,4.94-4.72,5.36s-5.2-.57-7.65-1.57c-21.19-8.7-41.87-22.4-51.07-43.37,0,0-.95-2.75.94-3.68s4.16-.32,6.06.55c12,5.48,10.77,18.63,27.83,27.54,8.08,4.2,17.3,6,25,10.79C195,469.28,196.64,470.67,196.91,472.61Z"/></g><path class="cls-13" d="M147.92,570.28c-36.11-.19-51-22.77-56.37-47.73C69.67,570.92,47.71,623,49.23,633.73c3.61,25.51,35.21,33,49.6,23.72C105.68,653.05,127.24,612,147.92,570.28Z"/><path class="cls-3" d="M132.6,433.53c4.88,11,13,20.18,22.46,27.48a112,112,0,0,0,15.65,10q3.94,2.1,8,3.94a58.4,58.4,0,0,0,9.1,3.65c2.94.77,6.19.6,8.44-1.68a5.22,5.22,0,0,0,.7-6.8c-1.75-2.49-5-4-7.7-5.23-3.08-1.45-6.28-2.63-9.48-3.79-6.26-2.29-12.56-4.68-17.75-9a48.33,48.33,0,0,1-9.3-11.19c-2.56-3.94-5.2-7.89-9.21-10.51-2.52-1.64-6-3.27-9-2.2-2.17.76-2.7,3-2,5.06.41,1.22,2.34.7,1.93-.53a3.28,3.28,0,0,1-.16-1.7c.37-1.55,2.81-1.23,3.94-.93a15.94,15.94,0,0,1,5.85,3.16c3,2.45,5,5.71,7.09,8.9a52,52,0,0,0,8.14,10.19A46.64,46.64,0,0,0,174,461.06c5.82,2.31,11.89,4.06,17.36,7.15,2.08,1.18,5.67,3.21,4.36,6.16-1.44,3.2-5.46,2.93-8.23,2.06a94.91,94.91,0,0,1-15.55-7,114.09,114.09,0,0,1-14.14-8.83c-9.92-7.32-18.4-16.68-23.43-28C133.81,431.35,132.09,432.36,132.6,433.53Z"/><path class="cls-3" d="M132.6,432.52q-1.35,2.78-2.68,5.57-3.64,7.55-7.24,15.12-5.31,11.15-10.55,22.33Q105.77,489.1,99.5,502.7q-6.8,14.79-13.45,29.65T73,562.11c-3.91,9.14-7.75,18.32-11.43,27.56-3,7.6-6,15.23-8.56,23a106.09,106.09,0,0,0-4.45,16,18.27,18.27,0,0,0-.34,4.89,30.24,30.24,0,0,0,6.85,15.81c7.11,8.58,18.7,13.09,29.71,12.88,6.37-.12,13.33-1.73,17.53-6.83a107.14,107.14,0,0,0,9-13.43c4.18-7,8.1-14.14,12-21.32,4.72-8.79,9.31-17.66,13.84-26.55q7.37-14.48,14.52-29,7.07-14.33,14-28.71,6.16-12.79,12.26-25.62,4.69-9.87,9.34-19.75,2.61-5.55,5.2-11.1c.22-.49.44-1,.67-1.45.54-1.16-1.19-2.18-1.73-1q-1.35,2.93-2.72,5.83-3.68,7.86-7.37,15.69-5.38,11.37-10.81,22.73-6.52,13.63-13.15,27.24-7,14.46-14.22,28.86-7,14.06-14.25,28c-4.24,8.16-8.55,16.28-13,24.31-3.38,6.07-6.83,12.12-10.64,17.93-1.23,1.88-2.64,3.94-3.93,5.55a24.66,24.66,0,0,1-1.65,1.9c-.23.23-.47.45-.71.67s-.08.12-.48.37c-8.5,5.44-20.31,4.45-29.25.66a32.76,32.76,0,0,1-13.35-10.12,28.34,28.34,0,0,1-4.16-7.71,31,31,0,0,1-1.19-4.52,9.55,9.55,0,0,1-.26-1.81,18.94,18.94,0,0,1,.49-4.85c.48-2.46,1.13-4.89,1.83-7.3,2-6.82,4.4-13.51,6.91-20.15,3.23-8.58,6.68-17.09,10.21-25.55q6-14.49,12.39-28.85,6.54-14.85,13.28-29.63,6.47-14.21,13-28.34,5.73-12.35,11.56-24.63,4.39-9.33,8.86-18.62,2.46-5.13,4.94-10.27l.64-1.33c.56-1.15-1.16-2.17-1.73-1Z"/><g class="cls-9"><path class="cls-10" d="M188.8,454.09l-23.73,49.78c-7.92,16.62-15.88,33.31-21.42,50.87-.82,2.6-1.54,5.62-.05,7.9,1.61,2.47,5.24,2.88,7.92,1.68s4.62-3.6,6.36-6c10.92-14.85,18.59-31.8,26.18-48.6,5.87-13,11.75-26,16.35-39.56,1.11-3.28,2.17-6.67,2-10.13s-1.8-7.05-4.87-8.66-7.55-.45-8.75,2.8"/></g><g class="cls-9"><path class="cls-10" d="M209,433.81c1.76,2.69,1.65,6.31-2.92,8.64a4,4,0,0,1-2.51.4,7.09,7.09,0,0,1-2.79-1.24c-2.25-1.57-3.92-4.3-3.44-7a3.59,3.59,0,0,1,1.2-1.93A7,7,0,0,1,209,433.81Z"/></g><g class="cls-7"><path class="cls-12" d="M102.69,562.52a13.28,13.28,0,0,0-8.29,4,8.67,8.67,0,0,0-2,3.72C91,575.82,95,579.1,99.22,580a25.13,25.13,0,0,0,8,0,11.16,11.16,0,0,0,4.17-1.06c3-1.67,3.81-5.91,2.48-9.07-.72-1.7-2.81-3.76-4.6-5.31A8.31,8.31,0,0,0,102.69,562.52Z"/><path class="cls-12" d="M131.39,520.51c-2.08-.6-4.28,1.54-4.09,3.69a4.7,4.7,0,0,0,4.45,3.93,4.61,4.61,0,0,0,4.58-2.81,3.39,3.39,0,0,0-2.5-4.37Z"/><path class="cls-12" d="M138.71,468.33c-3.13-2.77-8.07-1.17-9.49,2.76a20,20,0,0,0-1,6.73c0,3.39.73,7.41,4.1,8.59A5.73,5.73,0,0,0,138,485c2.58-2.4,3.07-6,3-9.37a13.65,13.65,0,0,0-1.58-6.54A3.24,3.24,0,0,0,138.71,468.33Z"/></g><path class="cls-10" d="M196.85,344.09c1-7.55.12-14.94-5.77-19.23-5.58-4.07-13.62-3.34-19.26-7.36-15.18-10.8,1.63-40.63-13.48-51.53-3.23-2.32-7.31-3.13-11.28-3.32-10-.46-19.89,2.56-29.93,2.9s-21.38-2.93-25.86-11.91-.53-19.79-3.31-29.28c-3.29-11.21-15.43-17.94-27.09-18.63S3.69,209-7.21,213V-268.46l508.92-1.07v.6a73.9,73.9,0,0,0-28.3,24.34c-5.27,7.66-8.91,18.46-3.28,25.86,2.42,3.21,6.16,5.11,9.85,6.74,20.82,9.24,45.44,14.11,59.16,32.29,7.7,10.22,10.64,23.14,15.43,35s12.84,23.85,25.25,27c11.62,3,23.77-2.73,33.23-10.14s17.48-16.69,27.83-22.76,24.36-8.3,33.9-1c4,3,6.77,7.37,10.35,10.85,11.5,11.14,31.79,11.38,43.55.53,14.46-13.37,15.28-38.67,32.41-48.37,11.19-6.33,25.29-3.45,37.63-7,18.08-5.19,29.92-24.77,28.86-43.54s-8-27.81-31-31.39l506.21-1-3.71,518.88c1.7,1-.31,4.91-2.2,4.22C1246,233,1172.06,233.24,1157,236.07c-12.48,2.34-26.57,10.24-33,15.94s-10.73,13.39-13.91,21.34c-1.76,4.44-3.26,9.11-6.24,12.86-7.85,9.75-22.49,9.64-35,8.41s-26.89-2.05-35.49,7a28.24,28.24,0,0,0-6.07,11.08,81.46,81.46,0,0,0-3.69,16.65,43.67,43.67,0,0,0-.18,6.74,28.21,28.21,0,0,0,1.31,7.32l.1.19a138.1,138.1,0,0,1-27.55,11.81l0-.16a15.74,15.74,0,0,0-.48-7.65,22.37,22.37,0,0,0-2.3-5.26c-3.5-5.83-9.82-10.33-17.84-8.63-10.11,2.14-25.18,16.94-32.2-2.92-12.62-35.68-103.48-60.19-153.95-6.27-12.73,13.61-15.39,39.5-14.33,53.85.78,10.62,2.18,21.27,1.32,31.88S772,432.1,762.43,436.73c-5.34,2.6-11.5,2.8-17.42,2.56-10.85-.44-22.46-2.66-30-10.49-10.15-10.55-11.18-29.45-24.53-35.46-4.5-2-9.69-2.06-14.53-1.13-24.42,4.75-37.71,31.24-44,55.32s-10.35,50.93-28.82,67.62c-11.25,10.16-26.49,15-41.58,16.43-21.41,2-43.69-2.41-61.64-14.23s-31.18-31.28-33.62-52.65c-1.92-16.77-1.11-33.53.7-50.32s-31.66-46.7-76.16-57.75c-33.84-8.4-94.46-7.51-134.13-2.12a76,76,0,0,0-24.26,7.38c-2,1-3.91,2.06-5.8,3.19s-4,2.47-5.91,3.81a119.92,119.92,0,0,1-14.12-5.78A127.91,127.91,0,0,1,193.84,356c.71-2.08,1.39-4.29,1.94-6.54A52.55,52.55,0,0,0,196.85,344.09Z"/><path class="cls-3" d="M194.74,356.41a54.52,54.52,0,0,0,2.78-10.27,36.43,36.43,0,0,0,.61-9.32c-.45-5.68-3-11-8.13-13.82-5.34-2.93-11.89-2.67-17.05-5.94-3.64-2.31-5.6-6.13-6.43-10.25-1.82-9,.42-18.34-.52-27.44-.42-4-1.45-8-4-11.25-3.6-4.59-9.33-6.2-15-6.47-13.9-.66-27.76,5.51-41.54,1.57-5.3-1.52-10.34-4.53-13.06-9.47-3.3-6-2.35-13.26-2.38-19.84,0-6.14-1-12.06-4.82-17.06a30.05,30.05,0,0,0-12.76-9.49c-7.68-3.14-15.74-2.85-23.86-2.44-9.48.47-18.95,1.29-28.38,2.35-8.17.92-16.49,1.83-24.49,3.8-1.18.3-2.34.66-3.5,1s-.69,2.34.53,1.93c6.71-2.23,13.9-3.09,20.88-4,9.45-1.21,19-2.11,28.45-2.76,4-.27,8-.49,12-.6a54.79,54.79,0,0,1,9.67.33c11,1.65,21.95,8.79,23.88,20.44,1.08,6.53-.18,13.2.73,19.76a20.09,20.09,0,0,0,8.31,14c10.41,7.39,23.7,5.27,35.45,3.52,7-1,14.7-2.25,21.57,0A14.14,14.14,0,0,1,163,274.2c1.34,4.22,1.36,8.76,1.25,13.14-.11,4.59-.47,9.18-.3,13.76.15,4.1.72,8.33,2.7,12,2.35,4.34,6.45,6.79,11.08,8.14,5.64,1.63,12.14,2.23,15.77,7.47,3.45,5,3.13,11.68,2,17.36a54.49,54.49,0,0,1-2.7,9.82c-.48,1.2,1.45,1.72,1.93.54Z"/><path class="cls-3" d="M221.09,369.88c10-6.39,19.93-11.35,31.72-13.67a347,347,0,0,1,34.45-4.61c24.66-2.32,49.62-2.36,74.15,1.34,21.72,3.28,43.28,9.41,63,19.27,13.95,7,28.87,16.31,37.21,29.94,4.09,6.67,4.78,13.48,5,21.2.26,8.49-.65,16.83-1.34,25.27-1.46,18,2.87,35.26,13.57,49.93,24,32.89,73.48,43.87,110.16,27,39.38-18.1,35.73-65.24,51.53-99.2,7.66-16.46,22.53-35.15,42.86-33.69s20.08,27.91,33.07,38.8c6.82,5.71,15.81,7.81,24.47,8.56,9.4.82,19.7.7,27.16-5.89,16.56-14.65,9-40.07,9.19-59.05.22-20,4.4-40.94,19-55.61,9.35-9.39,21.77-15.39,34.31-19.23,26.92-8.25,59.06-8.4,84.84,3.87,11.78,5.61,22.06,14.27,27.76,26.18,2.89,6,6.77,12,14.27,11.43,6.46-.48,11.82-4.7,17.86-6.58,11.73-3.65,23,8.2,21.06,19.87-.2,1.25,1.72,1.8,1.93.53,1.37-8.32-3.37-17.59-10.92-21.42-6.79-3.43-13.28-.9-19.62,2.07-7.9,3.7-15.74,5.93-20.94-3.05-3.37-5.82-5.9-11.52-10.54-16.54-18.58-20.08-49.47-25.28-75.56-23.72-25.14,1.52-54.67,9.59-70.6,30.61-12.82,16.92-15.78,38.78-14.75,59.46.61,12.07,3.11,24.53-.55,36.35a29.15,29.15,0,0,1-8.18,13.41c-4.88,4.29-11.19,5.56-17.52,5.64-10.49.14-22.47-1.24-30.92-8-7.18-5.77-10.12-14.82-14-22.82-3.32-6.81-7.75-13.4-15.3-15.84-8.51-2.76-18.41,0-25.89,4.42-15.09,8.85-23.82,25.78-29.2,41.82-6.45,19.24-8.51,39.89-17.73,58.19-4.86,9.63-11.74,18.07-20.92,23.86-9.68,6.1-21,9.26-32.3,10.49-22.69,2.47-46.72-2.45-65.35-16-17.2-12.51-29.28-32.27-30.51-53.71-.95-16.5,4.22-33.27.5-49.7-2.89-12.76-14-22.68-24.21-29.92C427.36,369.82,408.75,362.26,390,357c-23.27-6.51-47.51-9.18-71.64-9-12,.08-24,.84-35.93,2.1-11,1.16-22.18,2.35-33,4.79s-20.08,7.33-29.43,13.28c-1.08.69-.08,2.42,1,1.73Z"/><path class="cls-3" d="M796.56-269.52l13.51,0,36.79-.07,54.68-.11,66.15-.13,73.06-.14,73.44-.15,68.49-.13,57.87-.12,41.63-.08,12.91,0c2.16,0,4.69.36,6.82,0a6.17,6.17,0,0,1,.86,0l-1-1-.18,25.27-.47,65.7-.66,91.44-.73,102.81-.71,98.59-.57,80.79-.34,47.42c0,2.1-.49,4.79,0,6.86.08.39.64,1,.65,1.3.13,2.92-4.84,1.19-6.31.86q-6.24-1.44-12.5-2.8-10.87-2.35-21.81-4.44c-11.82-2.24-23.7-4.2-35.64-5.74-15.5-2-31.19-3.39-46.84-3-8.56.24-17.55.76-25.69,3.6-9.73,3.39-20.64,8.18-28.05,15.53A55.76,55.76,0,0,0,1110.5,270c-2.86,6.46-4.54,13.88-10.29,18.51-10.4,8.4-25.42,5.35-37.6,4.57-11.43-.73-24.59.19-31.85,10.33-3.86,5.41-5.6,12.4-6.93,18.8-1.47,7.07-2.08,14.49,0,21.49.38,1.23,2.31.71,1.93-.53-2.47-8.13-1.12-16.84,1-24.9,2-7.47,4.62-15,11.55-19.29,11.38-7,25.72-3.26,38.17-2.83,11.62.4,24.38-1.76,30.47-12.85,3.48-6.32,5.25-13.39,9-19.64a42.13,42.13,0,0,1,13.15-14.15c8.36-5.44,18.4-10.58,28.32-12.28,3-.52,6.11-.88,9.19-1.15a220.11,220.11,0,0,1,37.29.47c24.1,2,48,6.26,71.63,11.28q5.85,1.24,11.68,2.56c1.94.43,3.87.88,5.81,1.32,1.41.33,3.16,1.16,4.62.86a4.07,4.07,0,0,0,2.95-3.1,3.17,3.17,0,0,0-.1-1.83s-.7-1.23-.45-.3a8.83,8.83,0,0,1,0-2l.27-37.46.53-74.27.68-95.57.74-103.28.68-95.14.53-73.39.25-36.16,0-1.6a1,1,0,0,0-1-1l-13.52,0-36.79.07-54.67.11-66.16.13-73.05.14-73.45.15-68.48.13-57.88.11-41.62.09c-6.57,0-13.18-.2-19.74,0-.28,0-.57,0-.85,0a1,1,0,0,0,0,2Z"/><path class="cls-3" d="M-6.21,213V-261.23a49.12,49.12,0,0,0,0-6.42,7.3,7.3,0,0,1,0-.81l-1,1,13.69,0,36.92-.08,55-.11,66.58-.14,73.42-.16,73.62-.15,69.1-.15,58-.12,42-.08c6.59,0,13.18.06,19.77,0h.86a1,1,0,0,0,0-2l-13.68,0-36.92.08-54.95.11-66.58.14-73.43.16-73.61.15-69.11.14-58,.13-42,.08c-6.59,0-13.19-.06-19.77,0h-.87a1,1,0,0,0-1,1V193.4c0,6.26-.1,12.52,0,18.78,0,.27,0,.54,0,.81a1,1,0,0,0,2,0Z"/><path class="cls-2" d="M110.55,208.7a6.44,6.44,0,0,1,7.38-2.9c3.51,1,6.81,3.15,9.89,5.23a19.13,19.13,0,0,1,5.29,4.63c1.34,1.94,1.89,4.61.73,6.67-1.57,2.78-5.34,3.27-8.52,3-4.43-.32-9-1.53-12.23-4.55s-4.75-8.21-2.56-12.07Z"/><path class="cls-3" d="M111.41,209.21a5.45,5.45,0,0,1,4.87-2.67c2.25.07,4.53,1.36,6.43,2.44a67.44,67.44,0,0,1,5.9,3.81c1.83,1.29,3.73,2.86,4.5,5a4.49,4.49,0,0,1-1.38,5.36,9,9,0,0,1-5.16,1.22c-4.14,0-8.74-1-12-3.67s-5.35-7.61-3.12-11.53a1,1,0,0,0-1.73-1c-2.37,4.15-.94,9.52,2.23,12.85,3.55,3.73,9,5.14,14,5.35,4.37.18,9.8-1.61,9.52-6.92-.31-5.67-6.35-9-10.65-11.59-2.5-1.51-5.53-3.26-8.53-3.35a7.5,7.5,0,0,0-6.6,3.66C109,209.3,110.74,210.3,111.41,209.21Z"/><path class="cls-2" d="M273.18,329.42a10.91,10.91,0,0,0,6,7.72,3.72,3.72,0,0,0,2.52.39,5,5,0,0,0,1.91-1.42,16.37,16.37,0,0,1,9.54-5c3.21-.36,6.4.52,9.54,1.21s6.5,1.2,9.54.14,5.6-4.16,5-7.32c-.65-3.33-4.41-5.19-7.8-5.27s-6.7,1.06-10.08,1.35c-4.94.43-9.87-1-14.82-.8S274,323.13,273,328Z"/><path class="cls-3" d="M272.22,329.68a12,12,0,0,0,5.83,8c1.6.89,3.44,1.39,5,.26s2.83-2.71,4.54-3.77a13.52,13.52,0,0,1,5.78-2.08,22.35,22.35,0,0,1,7.14.77c4,.89,8.34,2,12.3.44,3-1.16,5.63-4.1,5.47-7.46s-2.78-5.47-5.66-6.42c-3.87-1.28-7.88,0-11.74.61-4.61.72-9.15-.32-13.75-.57-3.83-.22-7.84.34-11.06,2.57a9.89,9.89,0,0,0-3.37,3.78,6.07,6.07,0,0,0-.56,3.62c.13,1.26,2.13,1.28,2,0a4.35,4.35,0,0,1,.22-2.47,7.67,7.67,0,0,1,2.72-3.2A14.09,14.09,0,0,1,285,321.4c4-.07,7.95.83,11.95.89,3.78.06,7.34-1.17,11.08-1.4,2.8-.18,6.34.55,7.78,3.25,1.54,2.87-.76,6-3.41,7.18-3.41,1.51-7.39.49-10.85-.29-3.64-.82-7.37-1.52-11-.4a16.74,16.74,0,0,0-4.59,2.25,19.18,19.18,0,0,0-2.13,1.68c-.7.62-1.44,1.73-2.36,2-1.69.51-4-1.58-5-2.72a10,10,0,0,1-2.3-4.69C273.88,327.89,272,328.42,272.22,329.68Z"/><path class="cls-2" d="M412.36,334.37a7.82,7.82,0,0,0-7.69-3.22,6.5,6.5,0,0,0-1.61.54,5.25,5.25,0,0,0-3,5.62c.57,2.43,3.09,3.84,5.43,4.72,1.57.59,3.41,1.06,4.83.17a5.08,5.08,0,0,0,1.44-1.58,7.28,7.28,0,0,0,1.4-4.6A3.84,3.84,0,0,0,412.36,334.37Z"/><path class="cls-3" d="M413.23,333.87a9.11,9.11,0,0,0-7.56-3.85,7,7,0,0,0-6.49,4.86c-.82,2.87.92,5.37,3.29,6.81a15.89,15.89,0,0,0,3.78,1.65,5.85,5.85,0,0,0,4.41-.17c1.53-.83,2.53-2.71,3.11-4.28a6.64,6.64,0,0,0,.42-2.65,4.43,4.43,0,0,0-1-2.37,1,1,0,0,0-1.37-.36,1,1,0,0,0-.36,1.37,2.94,2.94,0,0,1,.69,1.36,4.44,4.44,0,0,1-.28,1.91,7.25,7.25,0,0,1-1.77,3c-1.59,1.43-4.42.07-6-.76s-3.38-2.29-3.15-4.35a4.77,4.77,0,0,1,4.21-3.92,6.89,6.89,0,0,1,6.3,2.81,1,1,0,0,0,1.37.35A1,1,0,0,0,413.23,333.87Z"/><path class="cls-2" d="M824.7,276c-3.66,0-7.41.1-10.82,1.43s-6.19,4-6.81,7.39a6.84,6.84,0,0,0,3.33,7c2.14,1.24,3.94.49,5.67-.25l20.8-8.84a3.81,3.81,0,0,0,1.76-1.16c.78-1.07.12-2.54-.78-3.5C835.86,275.9,824.7,276,824.7,276Z"/><path class="cls-3" d="M824.7,275c-6.28.08-13.74.55-17.4,6.52a8.07,8.07,0,0,0-.45,8c1.3,2.54,4.08,4.42,7,3.89a19.33,19.33,0,0,0,4.09-1.51l5.88-2.5,10.85-4.61c2.51-1.06,6.46-2.19,5-5.74-.76-1.84-2.29-2.62-4.13-3.07a45.62,45.62,0,0,0-10.81-1,1,1,0,0,0,0,2,63.53,63.53,0,0,1,7,.36,17.63,17.63,0,0,1,4.48.89,2.49,2.49,0,0,1,1.44,1.23c1,1.75-.89,2.24-2.19,2.8l-17.41,7.39c-2.69,1.14-5.52,2.92-8.11.6a5.85,5.85,0,0,1-1.53-6.55C810.89,277.32,819,277,824.7,277A1,1,0,0,0,824.7,275Z"/><path class="cls-2" d="M931.06,288.4a16.8,16.8,0,0,0-6.5-2c-2.25-.26-4.79.62-5.77,2.65a5.33,5.33,0,0,0,1.34,5.89,13.07,13.07,0,0,0,11.77,2.33,5.32,5.32,0,0,0,3.5-4.54C935.43,290.71,931.06,288.4,931.06,288.4Z"/><path class="cls-3" d="M931.57,287.53a17.35,17.35,0,0,0-5.9-2,8.69,8.69,0,0,0-5,.45,5.65,5.65,0,0,0-2.19,8.52c2.14,3.19,6.64,4.37,10.29,4.32,3.42,0,7.72-2.2,7.59-6.18-.07-2.37-3-4.14-4.82-5.14-1.14-.6-2.15,1.12-1,1.73a10.45,10.45,0,0,1,3.49,2.68,2.39,2.39,0,0,1-.42,2.84,5.5,5.5,0,0,1-3.65,2,12.87,12.87,0,0,1-4.86-.38,9.41,9.41,0,0,1-4-1.87c-1.94-1.72-2.6-5,0-6.48a6.38,6.38,0,0,1,4.32-.51,15.54,15.54,0,0,1,5.14,1.73A1,1,0,0,0,931.57,287.53Z"/><path class="cls-2" d="M1053,261.13c-3,2.6-5.36,7.18-3,10.36,1.78,2.4,5.25,2.6,8.23,2.39,3.5-.25,7.07-.78,10.11-2.52s5.45-4.92,5.4-8.42-3.19-6.92-6.67-6.5C1067,256.44,1057.56,257.14,1053,261.13Z"/><path class="cls-3" d="M1052.27,260.43c-3.53,3.15-6.59,9.63-1.65,13,2.07,1.44,4.81,1.57,7.25,1.43a28.15,28.15,0,0,0,8.9-1.7c4.73-1.9,9.4-7,7.57-12.46a7.84,7.84,0,0,0-4.83-5,8.27,8.27,0,0,0-3.8-.13c-4.67.59-9.77,1.73-13.44,4.84-1,.83.43,2.24,1.41,1.41,2.77-2.34,6.62-3.32,10.12-3.95,2.45-.45,5-1,7,.93,3.69,3.55,1.26,8.89-2.44,11.31a17.27,17.27,0,0,1-6.83,2.39,23.33,23.33,0,0,1-7.17.27c-2.43-.39-4.55-1.93-4.38-4.61.15-2.49,1.87-4.74,3.66-6.34C1054.64,261,1053.22,259.57,1052.27,260.43Z"/><path class="cls-2" d="M181.52,262.78a40.47,40.47,0,0,0-1.38,10.32c0,2.59.3,5.33,1.9,7.37s4.85,2.94,6.82,1.28c1.52-1.29,1.77-3.52,1.78-5.51a47.41,47.41,0,0,0-.83-9c-.38-2.05-1-4.26-2.62-5.53C183.82,259.16,181.52,262.78,181.52,262.78Z"/><path class="cls-3" d="M180.56,262.52c-1.2,4.56-2,9.74-1.1,14.42.71,3.71,3.76,7.39,7.93,6.57,4.47-.88,4.37-6.3,4.19-9.83a46.62,46.62,0,0,0-1-7.43A8.87,8.87,0,0,0,187.9,261a4.79,4.79,0,0,0-7.24,1.25c-.7,1.08,1,2.09,1.72,1a2.82,2.82,0,0,1,4-.88c1.38,1,1.9,2.67,2.25,4.23a41.49,41.49,0,0,1,.84,5.87,28.56,28.56,0,0,1,0,5.47c-.18,1.41-.72,3-2.2,3.48-3.31,1.12-5.51-2.51-6-5.21-.76-4.28,0-9.05,1.12-13.2A1,1,0,0,0,180.56,262.52Z"/><path class="cls-2" d="M1163.73,188.05c-7.1-2.23-15.59,2.1-18,9.16-.94,2.83-.84,6.31,1.3,8.38s5.16,2.1,8,1.95c4-.22,8.17-.82,11.59-2.95s5.94-6.11,5.3-10.08S1163.73,188.05,1163.73,188.05Z"/><path class="cls-3" d="M1164,187.09a16,16,0,0,0-14.89,3.48c-3.85,3.36-6.83,10-3.57,14.72,1.72,2.52,4.76,3.24,7.65,3.29a31.88,31.88,0,0,0,9.81-1.28c5.43-1.68,11.37-6.93,9.86-13.28-.89-3.7-5.6-5.85-8.86-6.93-1.23-.41-1.75,1.52-.54,1.93,2.39.79,5.15,2.07,6.73,4.08,1.37,1.73.92,4.28,0,6.14a11.58,11.58,0,0,1-5.59,5.31,24,24,0,0,1-8.7,1.93c-2.44.17-5.36.38-7.49-1.07-4.32-2.95-1.71-9.54,1.14-12.52a14,14,0,0,1,13.89-3.87A1,1,0,0,0,1164,187.09Z"/><path class="cls-4" d="M669,574.62l.52,1.46a118.4,118.4,0,0,1-13.7,4.15c-29.45,7-61.65,4.89-89-9.16l1.14-2.24c3.11-4.93,6.74-9.8,11.84-12,13.83-6,29.51,10.13,43.86,5.71,6.24-1.91,11-7.48,17.06-9.91C651.85,548.1,666.69,561.79,669,574.62Z"/><path class="cls-5" d="M728.34,526l.06.28c-12.28,23.64-34.46,40.82-58.89,49.83l-.52-1.46c-2.3-12.83-17.14-26.52-28.25-22-6.07,2.43-10.82,8-17.06,9.91-14.35,4.42-30-11.74-43.86-5.71-5.1,2.24-8.73,7.11-11.84,12l-1.14,2.24A106.43,106.43,0,0,1,549,559.57a117.91,117.91,0,0,1-42.3-72.37c21.85,14.81,52.47,28.65,90.1,37.49A305.07,305.07,0,0,0,728.34,526Z"/><path class="cls-6" d="M507.25,448.72c14,12.45,45.14,30.91,111.27,44.55,53.06,11,96.46,6.68,119.67,1.69,12-2.56,18.64-5.34,18.36-6.28-2.38-7.73-16.15-7.75-16.84-7.75a119.27,119.27,0,0,0,0-15.62h.08s50.79,16,45.51,33.63c-2.54,8.51-24.39,19.94-56.92,27a305.07,305.07,0,0,1-131.52-1.28c-37.63-8.84-68.25-22.68-90.1-37.49-33-22.36-46-46.91-32.72-59.64,14.12-13.52,38.53-4,40.64-3.12a109.88,109.88,0,0,0-4.06,11c-2.48-.77-13-3.84-13.79-.3C496.61,435.85,498.78,441.17,507.25,448.72Z"/><path class="cls-4" d="M738.11,452.38l-.49.08c-4.55,8-13.44,11.78-22,13.08s-17.4.67-25.91,2.43c-8,1.65-15.44,5.34-23.31,7.33s-16.78,2.09-23.58-2.94c-3.11-2.28-5.73-5.87-5.85-9.93-.18-5.3,3.72-9.55,7.7-12.45,12-8.79,26.84-11.49,40.92-15.41s28.46-9.91,36.79-22.72C726.9,420.5,734.59,433.31,738.11,452.38Z"/><path class="cls-5" d="M739.71,480.93c-.28,4.4-.77,9.05-1.54,13.93l0,.1c-23.21,5-66.61,9.28-119.67-1.69-66.13-13.64-97.3-32.1-111.27-44.55a125.86,125.86,0,0,1,3.33-13.32,109.88,109.88,0,0,1,4.06-11,103.62,103.62,0,0,1,19.41-30l.55.51c1,11.05,4,23.78,10.17,32.69s18.28,13.91,26.83,8.13c7.75-5.26,9.87-17,17-23.15s17.16-5.45,26.06-3.29,17.89,5.5,26.78,3.84a8.4,8.4,0,0,0,4.75-2.24c5-5.48-3.65-15.35-.79-22.48,3.17-7.9,15.51-3.41,21-9.52,3.41-3.74,4.38-11.78-2.76-17.4A91.17,91.17,0,0,1,691,376.65c8.73,7,25.73,24.51,31.13,34.81.06.12.14.24.2.39-8.33,12.81-22.82,18.8-36.79,22.72s-28.88,6.62-40.92,15.41c-4,2.9-7.88,7.15-7.7,12.45.12,4.06,2.74,7.65,5.85,9.93,6.8,5,15.7,4.93,23.58,2.94s15.35-5.68,23.31-7.33c8.51-1.76,17.32-1.14,25.91-2.43s17.48-5.06,22-13.08l.49-.08a109.26,109.26,0,0,1,1.56,12.93A119.27,119.27,0,0,1,739.71,480.93Z"/><path class="cls-4" d="M663.71,361.51c7.14,5.62,6.17,13.66,2.76,17.4-5.53,6.11-17.87,1.62-21,9.52-2.86,7.13,5.81,17,.79,22.48a8.4,8.4,0,0,1-4.75,2.24c-8.89,1.66-17.91-1.69-26.78-3.84s-19-2.81-26.06,3.29-9.28,17.89-17,23.15c-8.55,5.78-20.63.79-26.83-8.13s-9.2-21.64-10.17-32.69l-.55-.51A111.81,111.81,0,0,1,565.2,371C592,357.16,630.1,349.67,663.71,361.51Z"/><path class="cls-14" d="M596.82,524.69c-37.63-8.84-68.25-22.68-90.1-37.49a114.34,114.34,0,0,0,4.75,18.72c30.7,17.77,111.69,56.14,208.11,34.1a92.62,92.62,0,0,0,8.82-13.77l-.06-.28A305.07,305.07,0,0,1,596.82,524.69Z"/><path class="cls-3" d="M739.13,495.12a129.89,129.89,0,0,0,.3-40.9,114.37,114.37,0,0,0-11.08-33.14c-1.86-3.69-3.78-7.38-5.81-11a77.07,77.07,0,0,0-8-11.12,176.24,176.24,0,0,0-21.13-21.63c-19.57-16.67-45.32-23.66-70.72-22.62-24.4,1-49.14,8.61-69.52,22.16A108.73,108.73,0,0,0,526,402.58a110,110,0,0,0-17.48,36.35c-.94,3.39-1.72,6.82-2.37,10.28-.24,1.26,1.69,1.79,1.93.53a114.53,114.53,0,0,1,14.26-38.14,104.44,104.44,0,0,1,24.53-27.67c18.9-15,42.86-23.85,66.72-26.51,25.35-2.82,51.74,1.88,72.75,16.92,8,5.73,15,12.87,21.65,20.13a133.05,133.05,0,0,1,9.64,11.7,91.33,91.33,0,0,1,6,10.1c4.88,9.1,9.14,18.44,11.79,28.46a116,116,0,0,1,3.09,39.55q-.45,5.18-1.26,10.31c-.19,1.26,1.73,1.8,1.93.53Z"/><path class="cls-3" d="M505.73,487.39c.57,2.24.83,4.59,1.34,6.85s1.08,4.45,1.72,6.65A118.93,118.93,0,0,0,513.45,514a120.18,120.18,0,0,0,13.69,24.15,112.62,112.62,0,0,0,44.3,36.27c18.35,8.29,38.71,11.58,58.75,10.53,19.81-1,39.41-6.07,56.77-15.77,15.72-8.78,29.56-21.23,39-36.62q1.74-2.84,3.27-5.77c.6-1.14-1.13-2.16-1.72-1-8.27,15.83-21.07,28.9-36.11,38.42-16.38,10.36-35.1,16.26-54.33,18.21-19.63,2-39.76-.09-58.27-7.08A109.94,109.94,0,0,1,532.64,542a117.43,117.43,0,0,1-23.73-48.65c-.47-2.14-.72-4.35-1.25-6.47-.31-1.24-2.24-.71-1.93.54Z"/><path class="cls-3" d="M511.37,434.62c-3.73-1.26-8.13-2.57-12.1-2.12-1.47.16-3.41.88-3.49,2.66a6.67,6.67,0,0,0,1.16,3.13c3.9,7,10.6,12.42,17,17a142.62,142.62,0,0,0,18.88,11.34,243,243,0,0,0,28.22,12,389.53,389.53,0,0,0,39.16,11.54,393.37,393.37,0,0,0,48.63,8.91,318.5,318.5,0,0,0,43.23,1.94,272.23,272.23,0,0,0,33.62-2.83q6.42-.95,12.76-2.3c5.66-1.21,11.66-2.46,16.89-5,.85-.41,2.2-1,2.21-2.15,0-1.88-2-3.93-3.41-5-3.31-2.5-7.7-3.37-11.75-3.73-.89-.08-1.8-.13-2.7-.13a1,1,0,0,0,0,2,30.3,30.3,0,0,1,8,1.07,14.64,14.64,0,0,1,5.59,2.68A7.25,7.25,0,0,1,755.2,488a3.79,3.79,0,0,0,.3.71c.31.37.22-.05.14-.3,0,0,0,.06-.11.1-8.34,4.07-17.81,5.75-26.93,7.26-23.25,3.83-47.11,4.22-70.55,2.25a354.54,354.54,0,0,1-46.61-7.27c-13.58-3-27.07-6.49-40.31-10.77-17.51-5.65-34.93-12.58-50.5-22.51a95.12,95.12,0,0,1-14.15-10.79,49.19,49.19,0,0,1-6.22-6.92,16.22,16.22,0,0,1-2.35-4.07c-.05-.15-.09-.31-.13-.46s-.1.08,0,0a2.9,2.9,0,0,1,1.7-.73,20.16,20.16,0,0,1,6.55.74c1.61.37,3.22.81,4.79,1.34,1.22.41,1.74-1.52.53-1.93Z"/><path class="cls-3" d="M515.28,423.63a55.15,55.15,0,0,0-12.86-3.55c-7.29-1.18-15-1.09-21.89,1.94-5.69,2.52-10.74,7.16-12.19,13.39-1.33,5.72.27,11.65,2.74,16.82,3.56,7.45,9.09,13.93,15,19.66a152.44,152.44,0,0,0,24.31,18.9,251.55,251.55,0,0,0,51.23,24.6,306.93,306.93,0,0,0,133.91,16.68c19.91-1.94,39.88-5.64,58.77-12.32a105.47,105.47,0,0,0,22-10.16c3.78-2.41,8.29-5.58,9.88-10,1.52-4.27-.37-8.6-3.07-11.92-3.5-4.32-8.35-7.55-13.11-10.34a153.6,153.6,0,0,0-28.15-12.41l-1.75-.57c-1.23-.39-1.76,1.54-.53,1.93a160.71,160.71,0,0,1,20.6,8.16,91.07,91.07,0,0,1,15.13,8.74c3.65,2.68,7.73,6.18,9,10.69,1.2,4.07-.86,7.35-3.78,10-4.69,4.31-10.68,7.29-16.45,9.86-17.39,7.73-36.41,12-55.19,14.7a304.71,304.71,0,0,1-128.63-9.16,280.94,280.94,0,0,1-54.89-22c-16.17-8.7-32.09-19.3-44.07-33.38-7.08-8.33-16.16-22.37-8.66-33.16,4.23-6.08,12-8.83,19.09-9.26A52.74,52.74,0,0,1,510.47,424c1.22.38,2.78.89,3.8,1.33,1.17.5,2.19-1.22,1-1.73Z"/><path class="cls-3" d="M533.6,394.93a82.33,82.33,0,0,0,6,25.23c3.1,7.21,7.84,13.78,15.17,17.09,6.43,2.9,13.82,2.71,19.26-2.11s7.77-12.33,12-18.17c12.11-16.63,33.67-2.87,49.45-2.39,3.85.11,9.2-.08,11.81-3.39,1.89-2.39,1.71-5.48,1.08-8.3-1.16-5.18-5.53-13.76.86-17.27,2.56-1.41,5.71-1.58,8.55-2s5.93-1.09,8.3-3c4.9-3.88,5-11.43,1.66-16.32a17.7,17.7,0,0,0-4-4c-1-.78-2,1-1,1.72a12.68,12.68,0,0,1,5.3,8.92,9.87,9.87,0,0,1-2.48,7.49c-4,4.16-10.94,2.88-16,4.85a8.64,8.64,0,0,0-5.33,5.45c-.92,2.9-.24,6.06.54,8.9s2.09,6,2,9.09a5.22,5.22,0,0,1-1.43,3.64c-1.56,1.58-4.11,1.93-6.21,2.13-9.43.91-18.36-3.11-27.46-4.83-7.34-1.38-15.65-1.53-22.05,2.9-5.91,4.1-8.58,11-12.17,17a22.62,22.62,0,0,1-6.68,7.57,14.33,14.33,0,0,1-9.65,2c-7.3-1-13.32-6.1-17-12.25-4.3-7.2-6.56-15.56-7.83-23.79-.32-2-.56-4.07-.74-6.12-.12-1.27-2.12-1.28-2,0Z"/><path class="cls-3" d="M568.85,569.34c2.41-3.82,5.12-7.74,8.94-10.29a16.37,16.37,0,0,1,10.78-2.53c7.63.68,14.59,4.63,21.92,6.59a26.74,26.74,0,0,0,10.59,1c4.21-.58,7.79-2.73,11.21-5.14s6.67-5.13,10.66-6a15,15,0,0,1,9.85,1.76A29.88,29.88,0,0,1,668,574.89c.24,1.26,2.16.72,1.93-.54-1.45-7.78-6.64-14.92-13-19.45a21.5,21.5,0,0,0-10.19-4.11c-3.88-.39-7.35,1.05-10.59,3.09-3.85,2.42-7.33,5.64-11.63,7.28a20.09,20.09,0,0,1-11.52.5c-7.91-1.7-15.12-5.92-23.19-7a18.72,18.72,0,0,0-12.19,2.15c-4.55,2.68-7.71,7.14-10.48,11.52-.69,1.09,1,2.09,1.73,1Z"/><path class="cls-3" d="M721.65,411.12a51.36,51.36,0,0,1-6.54,7.73,49.09,49.09,0,0,1-8.24,6.08,83.53,83.53,0,0,1-18.53,7.78c-14.11,4.28-29.14,6.57-41.74,14.71-5.44,3.51-11.45,8.81-10.58,16,.83,6.83,7.22,11.55,13.45,13.25,7,1.9,14.37.62,21.14-1.53,7.92-2.5,15.5-5.91,23.82-6.91,14-1.69,30.7.41,41.16-11.24a23.73,23.73,0,0,0,2.89-4,1,1,0,0,0-1.72-1c-3.28,5.66-8.88,9.24-15,11.16-7.28,2.27-15,2.15-22.52,2.67a67.56,67.56,0,0,0-11.84,1.69c-3.81.95-7.5,2.3-11.19,3.62-6.78,2.43-13.73,4.83-21,4.44-6.55-.34-14.23-3.51-16.63-10.15-2.6-7.21,3.83-12.87,9.26-16.35,12.2-7.81,26.7-10.11,40.36-14.17,12.09-3.59,24.41-9,32.52-19,1-1.2,1.8-2.47,2.71-3.71.75-1.05-1-2-1.73-1Z"/><path class="cls-3" d="M645,508a159.12,159.12,0,0,0,32.55,2.22c1.28-.05,1.29-2.05,0-2a156.1,156.1,0,0,1-32-2.15c-1.26-.21-1.8,1.71-.53,1.93Z"/><path class="cls-3" d="M685,509.83a1,1,0,0,0,0-2,1,1,0,0,0,0,2Z"/><path class="cls-5" d="M470.87,356.13l3.19-10.84a2.43,2.43,0,0,1,4.5-.4l4.56,9.12a2.44,2.44,0,0,0,2.2,1.34l8.93-.09a2.43,2.43,0,0,1,1.65,4.23l-5.4,4.86a2.43,2.43,0,0,0-.5,3l3.12,5.57a2.43,2.43,0,0,1-2.92,3.48l-9.15-3.19a2.43,2.43,0,0,0-2.43.5l-8.37,7.58a2.43,2.43,0,0,1-4-2.17l1.22-7.81a2.44,2.44,0,0,0-1.67-2.69l-6-1.9a2.42,2.42,0,0,1-.27-4.52l10-4.53A2.47,2.47,0,0,0,470.87,356.13Z"/><path class="cls-3" d="M471.83,356.4l1.53-5.18c.55-1.85,1-3.82,1.66-5.62a1.44,1.44,0,0,1,2.68-.2c.32.53.57,1.13.84,1.68l3.27,6.54a5.85,5.85,0,0,0,1.24,1.89,4,4,0,0,0,2.87.84l7-.08c.7,0,1.65-.17,2.23.3,1,.82.4,1.86-.35,2.54-1.61,1.48-3.28,2.89-4.87,4.39a3.56,3.56,0,0,0-1.07,3.77,13.4,13.4,0,0,0,1.18,2.21l1.81,3.25c.55,1,.95,2.59-.7,2.79a5.16,5.16,0,0,1-2-.55l-3.5-1.22-3.36-1.17a5.31,5.31,0,0,0-2.48-.47c-1.79.22-3.38,2.22-4.64,3.36L470,380.21c-.63.56-1.39,1-2.2.41s-.51-1.55-.39-2.38c.34-2.17.71-4.34,1-6.52a3.55,3.55,0,0,0-1.37-3.59,9.53,9.53,0,0,0-2.6-1L460.88,366c-.91-.29-2-.63-1.79-1.85.14-.87.94-1.13,1.64-1.45l2.85-1.28c2.05-.93,4.12-1.83,6.16-2.78a3.82,3.82,0,0,0,2.09-2.26c.46-1.21-1.48-1.73-1.93-.54-.32.87-1.37,1.16-2.15,1.51l-3.4,1.54c-1.78.8-3.63,1.52-5.36,2.41-2.93,1.53-2.22,5.43.7,6.42,1.16.39,2.34.74,3.52,1.11a8.3,8.3,0,0,1,2.75,1c.86.73.38,2.09.23,3l-.62,4a20.46,20.46,0,0,0-.38,2.59,3.49,3.49,0,0,0,2.49,3.37c2.3.65,3.91-1.37,5.42-2.74l5.69-5.15a2,2,0,0,1,2.12-.68c.89.26,1.76.61,2.63.92,2.11.73,4.21,1.57,6.34,2.2a3.46,3.46,0,0,0,4-5.13c-.55-1.05-1.16-2.08-1.73-3.11a12.77,12.77,0,0,1-1.35-2.52c-.33-1.19.94-2,1.72-2.67l3-2.75a6.64,6.64,0,0,0,1.87-2.08,3.47,3.47,0,0,0-1-4.08c-1.6-1.27-4.59-.71-6.48-.69l-3.78,0c-.92,0-1.66,0-2.19-.92-1.1-2-2-4.07-3-6.09-.89-1.77-1.63-4.26-3.83-4.71a3.44,3.44,0,0,0-3.77,1.89,14.53,14.53,0,0,0-.65,2l-2.25,7.63-.5,1.69A1,1,0,0,0,471.83,356.4Z"/><path class="cls-15" d="M781.12,386.88l-7.48-8.47a2.43,2.43,0,0,0-4.25,1.54l-.27,10.19a2.44,2.44,0,0,1-1.43,2.15L759.57,396a2.43,2.43,0,0,0,.29,4.53l6.95,2.12a2.41,2.41,0,0,1,1.71,2.5l-.46,6.36a2.42,2.42,0,0,0,4.11,1.92l6.94-6.75a2.41,2.41,0,0,1,2.41-.58l10.8,3.32a2.43,2.43,0,0,0,2.73-3.67l-4.41-6.56A2.42,2.42,0,0,1,791,396l4.64-4.26a2.43,2.43,0,0,0-1.68-4.22l-11,.15A2.41,2.41,0,0,1,781.12,386.88Z"/><path class="cls-3" d="M781.82,386.17l-3.9-4.42a34.42,34.42,0,0,0-4-4.43,3.44,3.44,0,0,0-4.3.07,3.68,3.68,0,0,0-1.24,2.88c-.09,2.42-.13,4.84-.19,7.27,0,.83,0,1.71-.07,2.53-.14,1.06-.9,1.34-1.74,1.72l-6.78,3.08a3.84,3.84,0,0,0-2.17,2,3.45,3.45,0,0,0,1.16,4.16,8.87,8.87,0,0,0,2.47.93l4,1.23c.95.29,2.27.45,2.44,1.65a13.47,13.47,0,0,1-.19,2.9c-.16,2.23-1,5.38,1.27,6.84s4.22-.36,5.82-1.93,3.38-3.48,5.2-5.05a2,2,0,0,1,2.1-.38c1,.3,2,.63,3.06.95,2.32.71,4.63,1.46,7,2.14a3.6,3.6,0,0,0,3.36-.46,3.45,3.45,0,0,0,1-4.3,62.17,62.17,0,0,0-3.72-5.58c-.55-.81-1.52-1.83-.92-2.85a11.06,11.06,0,0,1,2.15-2.06c1.65-1.51,4.39-3.22,3.75-5.83s-3.07-2.64-5.22-2.61l-7.91.1c-.87,0-1.71.16-2.39-.51-.92-.9-2.33.51-1.41,1.41,1.54,1.52,3.81,1.1,5.78,1.08l7.06-.1c.79,0,1.64-.06,2,.8.51,1.06-.39,1.74-1.08,2.37l-2.81,2.59a7.09,7.09,0,0,0-1.85,2.05c-1.08,2.28,1,4.41,2.15,6.18l2,2.95c.55.81,1.24,1.79.28,2.65-.69.62-1.52.25-2.28,0l-3.09-1c-2.16-.67-4.32-1.37-6.49-2s-3.41.45-4.82,1.83l-5.14,5c-.57.56-1.14,1.27-2,1-1.17-.34-1.05-1.47-1-2.42l.27-3.74a9.33,9.33,0,0,0,.06-2.69c-.59-2.5-3.42-2.85-5.49-3.48-1.2-.37-5.87-1-4.64-3.23.35-.63,1.31-.9,1.94-1.19l3.32-1.51c1.73-.78,4.47-1.48,5.26-3.4a6.07,6.07,0,0,0,.3-2.24l.1-3.49c0-1.87-.08-3.84.15-5.7a1.45,1.45,0,0,1,2.58-.8c.49.49.93,1,1.38,1.57l5,5.67,1,1.18C781.26,388.55,782.67,387.13,781.82,386.17Z"/><path class="cls-6" d="M638.44,304.72l5.81-4.73a1.6,1.6,0,0,1,2.61,1.46l-.91,6.7a1.59,1.59,0,0,0,.7,1.56l4.92,3.28a1.61,1.61,0,0,1-.68,2.94l-4.78.64a1.62,1.62,0,0,0-1.39,1.45l-.38,4.22a1.6,1.6,0,0,1-2.89.81l-3.82-5.17a1.62,1.62,0,0,0-1.52-.64l-7.42,1a1.61,1.61,0,0,1-1.39-2.7l3.59-3.82a1.61,1.61,0,0,0,.09-2.09l-2.58-3.29a1.61,1.61,0,0,1,1.55-2.58l7.19,1.28A1.6,1.6,0,0,0,638.44,304.72Z"/><path class="cls-3" d="M639.15,305.43l2.63-2.14,1.94-1.59a6.66,6.66,0,0,1,1.17-.95c1.49-.72.82,1.8.74,2.39-.2,1.49-.41,3-.61,4.48a3.08,3.08,0,0,0,1.58,3.26l3.87,2.58c.37.25,1,.53.78,1.09s-1,.47-1.46.53c-1.3.17-2.66.25-3.94.53-1.92.42-2.1,2.1-2.24,3.72-.06.57.06,4.12-1.27,3.23a4.7,4.7,0,0,1-.74-1l-1.49-2c-.69-.93-1.45-2.41-2.49-3s-2.6-.18-3.77,0l-4.71.65c-.41.06-.88.23-1.17-.19s.26-1,.57-1.3c1-1.06,2-2.08,3-3.17,1.43-1.64.59-3.07-.54-4.51-.36-.46-3-3.16-1.2-3.27a9.79,9.79,0,0,1,1.92.34l2.75.49c1.45.26,3.17.87,4.51,0,1.07-.7.07-2.43-1-1.73-.54.35-1,.16-1.57.05l-2.79-.49a22.1,22.1,0,0,0-3.93-.66c-2.45,0-3.14,2.74-1.86,4.43.44.58.89,1.14,1.34,1.71s1.43,1.35,1.1,2.07c-.2.44-.81.87-1.13,1.22l-2,2.1c-1.16,1.24-1.88,2.94-.39,4.32,1.1,1,2.68.55,4,.37,1.72-.23,3.46-.58,5.19-.71,1.15-.09,1.7,1.29,2.32,2.12a27.59,27.59,0,0,0,2.68,3.58,2.64,2.64,0,0,0,4.42-1.75c.07-.66.11-1.32.17-2a9.1,9.1,0,0,1,.2-2.16c.23-.63.93-.59,1.5-.67l2.9-.39c1.67-.22,3.33-.92,3.15-2.95-.15-1.65-1.95-2.45-3.16-3.26L648,309.43c-.45-.3-1-.53-1.12-1.11-.3-2.44,3-9.18-1.36-9.67-1.59-.18-3,1.41-4.1,2.32l-3.72,3C636.74,304.83,638.16,306.24,639.15,305.43Z"/><path class="cls-6" d="M23.53,373.72c-1.18-21,.67-30,4.42-77.5,3,1.09,4.16,4.6,4.95,7.68,3.63,14.07,8.73,28.88,12.36,42.94C70.33,330,84.6,324.27,85.77,324.55c2.08.51,2.32,3.35,2.08,5.48-3.22,29.26-10.3,55.62-18.38,83.93a1.86,1.86,0,0,1-.46.93c-.86.81-2.16-.37-2.61-1.47-1.6-3.93-1.21-8.34-1-12.59A125.22,125.22,0,0,0,62,365.58a3.54,3.54,0,0,0-1-2,3.16,3.16,0,0,0-2.93-.38c-18.58,5.95-22,7.08-33.48,10.41Z"/><path class="cls-3" d="M24.53,373.72a205.86,205.86,0,0,1-.07-22.08c.51-9.72,1.46-19.41,2.3-29.1Q27.9,309.39,29,296.22l-1.27,1c3.52,1.41,4.12,6.52,5,9.69,1.19,4.43,2.48,8.84,3.8,13.24,2.69,9,5.5,17.93,7.85,27a1,1,0,0,0,1.47.6c11.24-7.56,22.88-15,35.31-20.5a35.46,35.46,0,0,1,3.58-1.41c.33-.1.66-.17,1-.26.08,0-.21-.05,0,0-.33-.08,0,0,.2.13a2.06,2.06,0,0,1,.73,1c.62,1.63.2,3.6,0,5.27q-.43,3.78-1,7.55-1,7.23-2.35,14.39c-3.48,18.88-8.45,37.43-13.68,55.88-.33,1.16-.65,2.32-1,3.47-.15.5-.07,1-.61.74s-.8-1.15-1-1.63a19.89,19.89,0,0,1-.86-6.64c0-4.83.4-9.63.25-14.47a127.67,127.67,0,0,0-1.31-14.61c-.35-2.37-.76-4.74-1.25-7.09-.24-1.17-.5-2.35-.78-3.51a6.59,6.59,0,0,0-1.06-2.79c-1.19-1.46-3.09-1.36-4.72-.85-2.17.67-4.33,1.38-6.5,2.08l-9.49,3q-7.25,2.29-14.53,4.43a19.64,19.64,0,0,1-3.28.81c-1.26.13-1.28,2.13,0,2a43.71,43.71,0,0,0,7.51-2q3.66-1.1,7.3-2.23c2.85-.89,5.69-1.79,8.54-2.7l5.64-1.8,3.09-1a12.21,12.21,0,0,1,3.65-1c1.38,0,1.6,1.2,1.87,2.3.32,1.33.61,2.66.88,4q.77,3.76,1.31,7.57a124,124,0,0,1,1.18,15.76c.06,4.89-.6,9.84-.22,14.71.16,2,.45,4.44,1.58,6.18.8,1.23,2.58,2.33,3.86,1.08a5.51,5.51,0,0,0,1-2.53l1.11-3.93c.69-2.44,1.38-4.89,2.06-7.33q2-7.24,3.9-14.52c2.49-9.6,4.76-19.25,6.66-29q1.47-7.47,2.61-15,.56-3.65,1-7.32a66.2,66.2,0,0,0,.78-7c0-2.05-.68-5.47-3.36-5.42a8.34,8.34,0,0,0-2.59.73,100,100,0,0,0-11.61,5.49c-6.93,3.69-13.65,7.76-20.24,12-2.14,1.37-4.25,2.77-6.36,4.19l1.47.6c-2.52-9.7-5.55-19.24-8.4-28.84q-2.09-7-4-14.11c-.89-3.38-2.16-7-5.66-8.38-.65-.26-1.22.39-1.26,1-1.08,13.67-2.32,27.32-3.46,41-.66,7.93-1.27,15.88-1.31,23.85,0,4.22.12,8.44.35,12.66C22.61,375,24.61,375,24.53,373.72Z"/><path class="cls-12" d="M1231.72,355a14.41,14.41,0,0,1,2.07-8.24,14.06,14.06,0,0,1,4.07-3.8c.54-.35,1.09-.65,1.63-.95,4.69-2.5,10.33-3.7,15.36-2s10.07,7.29,11.44,12.4a18.92,18.92,0,0,1-2.06,15c-3.94,6.26-14.69,8.78-21.46,5.78s-10.85-10.51-11-17.9Z"/><path class="cls-6" d="M1237.44,342l.42.93a14.06,14.06,0,0,0-4.07,3.8,14.41,14.41,0,0,0-2.07,8.24c-12.62-7.09-22.53-15.89-36.58-24.39l-.16-.3a15.81,15.81,0,0,0,3.52-2.78,20.39,20.39,0,0,0,3.66-5.47C1214.08,328.63,1219.34,332.12,1237.44,342Z"/><path class="cls-12" d="M1204.42,311.6a24.67,24.67,0,0,1-2.26,10.43,20.39,20.39,0,0,1-3.66,5.47,15.81,15.81,0,0,1-3.52,2.78,18.4,18.4,0,0,1-12.24,2.22,21.42,21.42,0,0,1-13.88-9.38,25.44,25.44,0,0,1-2.92-6.25c-2.45-7.87-.68-17.21,5.34-22.81A19.33,19.33,0,0,1,1183.9,289a15.58,15.58,0,0,1,1.67,0,19.17,19.17,0,0,1,7.8,2.34,18.72,18.72,0,0,1,5.63,4.69S1204.32,301.65,1204.42,311.6Z"/><path class="cls-6" d="M1203.85,231.39a20.91,20.91,0,0,0,12.23,3.81v0c-9.95,17.75-14.06,34.44-22.55,55.88l-.16.27a19.17,19.17,0,0,0-7.8-2.34,15.58,15.58,0,0,0-1.67,0l0-.5q8.49-29,18.4-57.52l.47-.51A13.26,13.26,0,0,0,1203.85,231.39Z"/><path class="cls-12" d="M1222.2,199.5a18.44,18.44,0,0,1,10.34,17.23c-.1,5-.92,12.08-4.61,14.94a16.94,16.94,0,0,1-7.16,3.06,24.54,24.54,0,0,1-4.69.47,20.91,20.91,0,0,1-12.23-3.81,13.26,13.26,0,0,1-1.1-.91c-6.42-5.57-8.3-15.88-4.07-23.31A18.92,18.92,0,0,1,1217,198,17,17,0,0,1,1222.2,199.5Z"/><path class="cls-3" d="M1203,322.53a26.45,26.45,0,0,0-1.8-25.17,20.55,20.55,0,0,0-19.63-9.17c-9.56,1.3-16.32,9.06-17.52,18.43s3.12,19.14,11.24,24.1a19.93,19.93,0,0,0,15.45,2.38A18.94,18.94,0,0,0,1203,322.53c.55-1.15-1.18-2.17-1.73-1a17.11,17.11,0,0,1-9.64,9.22,17.68,17.68,0,0,1-13.14-.58c-7.9-3.6-12.72-12-12.64-20.59s5-16.47,13.46-18.87a18.38,18.38,0,0,1,19.54,6.79c5.14,6.73,5.83,16.42,2.42,24C1200.78,322.69,1202.5,323.71,1203,322.53Z"/><path class="cls-3" d="M1216.08,236.2c4.44,0,9.47-1,12.89-4.1,2.65-2.35,3.62-6.23,4.11-9.59a28.66,28.66,0,0,0-.22-11.45,19.47,19.47,0,0,0-6-9.72,19.23,19.23,0,0,0-31,19,19.87,19.87,0,0,0,6.19,10.89,21.55,21.55,0,0,0,14,5,1,1,0,0,0,0-2c-7.76-.11-14.89-4.22-17.55-11.73a17.31,17.31,0,0,1,24.93-21.15,17,17,0,0,1,6.63,7.8,21.38,21.38,0,0,1,1.35,10c-.24,3.49-.75,7.54-2.87,10.44-2.66,3.63-8.32,4.57-12.49,4.62A1,1,0,0,0,1216.08,236.2Z"/><path class="cls-3" d="M1230.72,355c0,7.34,4,15.07,10.57,18.56,5.85,3.1,13.65,2.23,19.18-1.21,6.65-4.13,8.73-12.74,6.82-20-2-7.51-9.2-13.92-17-14.1a23.26,23.26,0,0,0-14,4.68c-3.94,3-5.5,7.25-5.48,12.1a1,1,0,0,0,2,0c0-4,1.07-7.57,4.22-10.15a21.65,21.65,0,0,1,11-4.52,14.58,14.58,0,0,1,10.33,2.59,19.3,19.3,0,0,1,6.66,8.42c2.36,6.13,1.1,14.5-4.38,18.58a18.56,18.56,0,0,1-16.49,2.67c-7-2.46-11.29-10.43-11.29-17.59A1,1,0,0,0,1230.72,355Z"/><path class="cls-3" d="M1201.32,230.72q-9.9,28.53-18.4,57.52a1,1,0,0,0,1.93.53q8.49-29,18.4-57.52c.42-1.22-1.51-1.74-1.93-.53Z"/><path class="cls-3" d="M1215.21,234.73c-7.51,13.46-12.34,28-17.53,42.5-1.64,4.57-3.33,9.11-5.12,13.63-.47,1.2,1.46,1.72,1.93.53,5.78-14.61,10.23-29.77,16.66-44.11,1.77-3.93,3.69-7.78,5.79-11.54a1,1,0,0,0-1.73-1Z"/><path class="cls-3" d="M1201.66,322.89c11.82,6.55,23.41,13.49,35.27,20,1.13.62,2.14-1.11,1-1.72-11.86-6.48-23.45-13.42-35.27-20-1.13-.62-2.14,1.11-1,1.73Z"/><path class="cls-3" d="M1194.63,331.45c12.81,7.76,24.29,17.56,37.39,24.84,1.13.63,2.13-1.1,1-1.72-13.1-7.29-24.58-17.08-37.39-24.85-1.1-.67-2.11,1.06-1,1.73Z"/><path class="cls-3" d="M1175.45,319.54a20.34,20.34,0,0,0,11.73,3.49,1,1,0,0,0,0-2,18.46,18.46,0,0,1-10.72-3.21c-1.07-.73-2.07,1-1,1.72Z"/><path class="cls-3" d="M1192.6,321.53a1,1,0,0,0,0-2,1,1,0,0,0,0,2Z"/><path class="cls-3" d="M1223.76,214.56a8.42,8.42,0,0,0-8.7-6.7,1,1,0,0,0,0,2,6.43,6.43,0,0,1,6.77,5.23,1,1,0,0,0,1.23.7,1,1,0,0,0,.7-1.23Z"/><path class="cls-3" d="M1208.27,211a1,1,0,0,0,0-2,1,1,0,0,0,0,2Z"/><path class="cls-3" d="M1257.68,354.64l.17.31.09.16s.1.24,0,.13,0,.07,0,.09a1,1,0,0,1,0,.16c0,.12.07.23.1.35s.06.26.09.39,0,.1,0,0c0,.06,0,.12,0,.18a4.82,4.82,0,0,1,0,.76c0,.12,0,.24,0,.36s0-.15,0,0l0,.17a4.76,4.76,0,0,1-.2.74l-.06.16c0,.09,0,.1,0,0a3.18,3.18,0,0,1-.16.32,4,4,0,0,1-.2.35l-.1.15s-.15.19,0,.05a1,1,0,0,0,0,1.41,1,1,0,0,0,1.41,0,6.4,6.4,0,0,0,.5-7.26,1,1,0,1,0-1.72,1Z"/><path class="cls-3" d="M1255.88,366.58a1,1,0,0,0,0-2,1,1,0,0,0,0,2Z"/><path class="cls-15" d="M336.49,484.57c-17.24.3-36.63,1.54-48,14.48-7.47,8.48-13.38,29.6-11,40.65,4.44,20.62,8.17,29.21,29.19,42.83,22.53,14.59,61.68,12.21,80.87-1.29a78.51,78.51,0,0,0,32.73-59.59c.87-18.37-5.52-37.62-19.46-49.62s-35.8-15.13-51.16-5c-9.12,6-11.91,16.74-17.6,26.05"/><path class="cls-3" d="M336.49,483.57c-15,.27-31.92.92-44.25,10.56-5.41,4.23-8.79,9.89-11.32,16.19A68.12,68.12,0,0,0,276,531.41c-.4,6.47,1.24,12.77,3,18.94a50.55,50.55,0,0,0,6.9,15.3,58.15,58.15,0,0,0,13.44,13.08,71.22,71.22,0,0,0,19.23,10.58c14,4.76,29.47,5.25,43.91,2.62a72.6,72.6,0,0,0,19.5-6.26,63.75,63.75,0,0,0,17.32-13.3,80.09,80.09,0,0,0,21.13-42.77c2.42-15.86-.22-32.8-8.87-46.48A50.14,50.14,0,0,0,395,466.65,48.14,48.14,0,0,0,373.19,460a40.51,40.51,0,0,0-21.88,4.81,28.68,28.68,0,0,0-8.81,7.56,58.88,58.88,0,0,0-5.82,9.71c-1.77,3.53-3.47,7.09-5.51,10.46a1,1,0,0,0,1.72,1c3.93-6.48,6.47-13.82,11.11-19.87s11.49-9.48,18.76-11c14.81-3,30.64,2.59,40.94,13.45,10.84,11.44,15.84,27.59,15.62,43.15a77,77,0,0,1-14.67,43.51,75.31,75.31,0,0,1-16.54,16.75,56,56,0,0,1-16.91,8.19A89.38,89.38,0,0,1,329,590a63.78,63.78,0,0,1-19.24-6.73,81.64,81.64,0,0,1-16.93-12.56,42,42,0,0,1-9.14-13c-2.44-5.51-3.82-11.48-5.1-17.35-1.37-6.28-.5-12.85,1-19a58.79,58.79,0,0,1,7.49-18.68C295.23,490,311.53,486.91,325.4,486c3.69-.25,7.39-.35,11.09-.42a1,1,0,0,0,0-2Z"/><path class="cls-3" d="M334.27,486.33c-3.59-15-10.77-30.64-25.88-36.93a28.11,28.11,0,0,0-12.15-2.2c-1.28.06-1.29,2.06,0,2a29,29,0,0,1,19.61,7c5.79,4.77,9.84,11.27,12.62,18.17a87.88,87.88,0,0,1,3.87,12.48c.3,1.25,2.23.72,1.93-.54Z"/><path class="cls-12" d="M329.73,473.23a35.43,35.43,0,0,1-4.14-22.13,18.89,18.89,0,0,1,3-8.45c2-2.79,5.06-4.63,8-6.4l25.85-15.49c-3,9.71-6.07,19.53-11.3,28.25s-12.92,16.38-22.59,19.52"/><path class="cls-3" d="M330.59,472.73c-4.16-7.54-5.81-17.27-3.09-25.58,1.45-4.41,4.75-7.06,8.58-9.4,4.15-2.53,8.34-5,12.51-7.5l14.4-8.63-1.47-1.13c-4.64,15-9.74,31-22.43,41.16a34.45,34.45,0,0,1-10.75,5.91c-1.22.41-.7,2.34.53,1.93,15.43-5.11,24.42-19.74,29.84-34.18,1.77-4.7,3.26-9.5,4.74-14.29a1,1,0,0,0-1.47-1.13c-9.08,5.45-18.24,10.8-27.26,16.35-3.73,2.3-7,5-8.7,9.16a30.13,30.13,0,0,0-1.63,13.68,37,37,0,0,0,4.47,14.66c.62,1.13,2.35.12,1.73-1Z"/><path class="cls-3" d="M329.76,465.76a36.88,36.88,0,0,1,11.79-16.18c1-.8-.41-2.21-1.41-1.42a38.86,38.86,0,0,0-12.31,17.06c-.45,1.21,1.49,1.74,1.93.54Z"/><path class="cls-3" d="M381.12,483.21A47,47,0,0,1,402.78,508c.44,1.2,2.37.68,1.93-.53a49.12,49.12,0,0,0-22.58-26c-1.14-.61-2.15,1.12-1,1.73Z"/><path class="cls-3" d="M367.47,479.72a1,1,0,0,0,0-2,1,1,0,0,0,0,2Z"/><path class="cls-2" d="M884,469.86,805.47,572.08a26.53,26.53,0,0,1-10.23,8.18c-3.75,1.65-8.27,3.15-11.18,2.36-4.47-1.24-2.37-14.57-.22-19S863.16,457,863.16,457l.18-.2C869.35,462.7,877.08,467,884,469.86Z"/><path class="cls-10" d="M884,469.86,805.47,572.08a26.53,26.53,0,0,1-10.23,8.18c-3.75,1.65-8.27,3.15-11.18,2.36-4.47-1.24-2.37-14.57-.22-19S863.16,457,863.16,457l.18-.2C869.35,462.7,877.08,467,884,469.86Z"/><path class="cls-15" d="M884,469.86c-6.88-2.82-14.61-7.16-20.62-13.09a34.65,34.65,0,0,1-8.73-13.26c-3-8.76,25.75-8.74,25.75-8.74s-6.07-27,9.8-33,35.28,7.34,34.69,22c-1,25.19-24.34,23.06-24.34,23.06s6.3,24.59-.11,27C898.86,474.46,892,473.17,884,469.86Z"/><path class="cls-3" d="M864.05,456.07a37.64,37.64,0,0,1-5.54-6.79c-1.21-1.92-2.73-4.33-3.09-6.61-.31-1.9,1.75-3.08,3.27-3.77,5.17-2.33,11.41-2.69,17-3,1.56-.08,3.11-.14,4.67-.14a1,1,0,0,0,1-1.27,49.36,49.36,0,0,1-.84-16c.44-4,1.56-8.16,4.07-11.38,3.07-4,8.06-5.58,12.93-5.74,10.8-.37,22.94,6.84,25.83,17.67,1.3,4.89.35,10.78-1.75,15.33a18.76,18.76,0,0,1-7.44,8.37,25.5,25.5,0,0,1-13.36,3.16l-.26,0a1,1,0,0,0-1,1.26,76.76,76.76,0,0,1,2.73,18.44c0,1.86.14,6.75-2.34,7.41a6,6,0,0,1-2-.05,31.88,31.88,0,0,1-3.87-.76,69,69,0,0,1-10.17-3.41,62.86,62.86,0,0,1-19.82-12.68c-.92-.9-2.34.51-1.41,1.41a63.65,63.65,0,0,0,18.51,12.26,77.41,77.41,0,0,0,10.73,3.93,27.68,27.68,0,0,0,7.47,1.34c3.55-.05,4.52-3.85,4.81-6.75a49.93,49.93,0,0,0-.91-13c-.48-2.9-1-5.8-1.78-8.65l-1,1.27a25.67,25.67,0,0,0,13-2.54c8.63-4.15,13-14,12.33-23.32-.83-11.83-12.47-20.74-23.54-22.36-5.42-.79-11.68-.12-16.21,3.22-3.61,2.66-5.73,6.74-6.8,11a42.49,42.49,0,0,0-1,12.72,35.59,35.59,0,0,0,1,8c0,.12,0,.26.08.39l1-1.26a91.51,91.51,0,0,0-13.83,1.05,32.32,32.32,0,0,0-9.1,2.47c-2,1-4.13,2.64-4,5.11a7.56,7.56,0,0,0,.69,2.54,33,33,0,0,0,2.17,4.48,39.17,39.17,0,0,0,6.39,8.06C863.55,458.39,865,457,864.05,456.07Z"/><path class="cls-3" d="M862.3,456.47q-4.69,6.19-9.37,12.4-10.86,14.42-21.7,28.84-12.45,16.57-24.85,33.19c-6.33,8.51-12.68,17-18.88,25.62-1.43,2-2.92,4-4.21,6a17.2,17.2,0,0,0-1.84,5.13,28.86,28.86,0,0,0-.76,11.51,6.26,6.26,0,0,0,1.81,3.7c1.46,1.24,3.76,1,5.51.75a29.58,29.58,0,0,0,14.94-7.3,46.75,46.75,0,0,0,5.2-6.11l15.76-20.53L848,518.31l23.21-30.23,13-17c.21-.28.44-.56.64-.85.74-1.06-1-2.06-1.73-1-2.8,4-6,7.8-8.95,11.68l-21.17,27.56-24.5,31.91L809.68,565l-4.52,5.89a28.47,28.47,0,0,1-15.89,10.48c-1.53.39-4.56,1.23-5.76-.27-.88-1.08-1-2.81-1.07-4.13a31.62,31.62,0,0,1,1.61-11.17,20.81,20.81,0,0,1,3.15-5.41c5.34-7.55,10.89-15,16.4-22.38q12-16.14,24.07-32.22,11.43-15.24,22.9-30.45,6.42-8.52,12.85-17l.6-.8c.78-1-1-2-1.72-1Z"/><path class="cls-3" d="M914.84,418.68a28.26,28.26,0,0,1-.76,9.21,1,1,0,0,0,1.93.53,30.12,30.12,0,0,0,.83-9.74,1,1,0,0,0-1-1,1,1,0,0,0-1,1Z"/><path class="cls-3" d="M904.62,419a18.91,18.91,0,0,0-1.17,5.86,1,1,0,0,0,1,1,1,1,0,0,0,1-1,14.12,14.12,0,0,1,.32-2.63,18.11,18.11,0,0,1,.78-2.7,1,1,0,0,0-.7-1.23,1,1,0,0,0-1.23.7Z"/><path class="cls-3" d="M829.69,525.44q11-13.26,22.67-25.87c.88-.95-.53-2.36-1.41-1.42Q839.23,510.77,828.27,524c-.81,1,.59,2.41,1.42,1.42Z"/><path class="cls-3" d="M856.81,491.29a1,1,0,0,0,0-2,1,1,0,0,0,0,2Z"/><path class="cls-10" d="M24.63,21.61c1.75,2.23,3,5.83,4.53,12.44.57-7.21,5.5-16.21,13.31-17.69-3.78.33-7.9-2.47-9.32-6A45.69,45.69,0,0,1,30.47.17C28.94,4,28.06,7.83,25.36,10.89s-7,5.59-11.1,5.45C14.26,16.34,20.87,16.83,24.63,21.61Z"/><path class="cls-10" d="M576.71,544.07c1.13,1.43,1.94,3.75,2.93,8,.36-4.65,3.54-10.45,8.57-11.41a6.35,6.35,0,0,1-6-3.9,28.86,28.86,0,0,1-1.73-6.53c-1,2.44-1.56,4.94-3.29,6.91s-4.53,3.6-7.16,3.51C570,540.67,574.29,541,576.71,544.07Z"/><path class="cls-10" d="M669.75,406.58c1.59,2,2.74,5.32,4.13,11.35.52-6.58,5-14.79,12.15-16.14-3.46.3-7.21-2.25-8.51-5.52a41.64,41.64,0,0,1-2.44-9.25c-1.4,3.45-2.2,7-4.66,9.78s-6.41,5.1-10.13,5C660.29,401.77,666.32,402.22,669.75,406.58Z"/><path class="cls-10" d="M116.43,154.06c1.25,1.59,2.15,4.16,3.24,8.88.4-5.15,3.92-11.57,9.5-12.63a7,7,0,0,1-6.66-4.32,32.66,32.66,0,0,1-1.91-7.23c-1.09,2.7-1.72,5.47-3.64,7.65s-5,4-7.93,3.89C109,150.3,113.75,150.65,116.43,154.06Z"/><path class="cls-10" d="M205.8,512.38c2.55,3.25,4.38,8.5,6.61,18.15.83-10.53,8-23.65,19.42-25.81-5.52.48-11.52-3.6-13.6-8.83a66.29,66.29,0,0,1-3.9-14.78c-2.24,5.51-3.52,11.17-7.46,15.64s-10.25,8.15-16.19,7.95C190.68,504.7,200.32,505.4,205.8,512.38Z"/><path class="cls-10" d="M403,417.07c2.47,3.15,4.25,8.26,6.42,17.63.81-10.23,7.79-23,18.87-25.08-5.36.47-11.19-3.5-13.21-8.58a64.81,64.81,0,0,1-3.8-14.37c-2.17,5.36-3.42,10.86-7.24,15.2s-10,7.92-15.74,7.73C388.3,409.6,397.66,410.28,403,417.07Z"/><path class="cls-10" d="M957.63,520.38c1.91,2.43,3.28,6.36,5,13.58.62-7.88,6-17.71,14.54-19.32-4.13.36-8.62-2.7-10.18-6.62A49.8,49.8,0,0,1,964,497c-1.67,4.13-2.63,8.37-5.58,11.71s-7.68,6.11-12.13,6C946.3,514.62,953.52,515.15,957.63,520.38Z"/><path class="cls-10" d="M1241.8,10.89c1.61,2,2.76,5.35,4.16,11.41.52-6.62,5-14.87,12.21-16.23-3.47.31-7.24-2.26-8.55-5.55a42,42,0,0,1-2.46-9.29c-1.4,3.46-2.21,7-4.68,9.83s-6.45,5.13-10.19,5C1232.29,6.06,1238.35,6.5,1241.8,10.89Z"/><path class="cls-10" d="M1156,128.58c1.18,1.5,2,3.91,3,8.35.38-4.84,3.69-10.88,8.93-11.87a6.64,6.64,0,0,1-6.26-4.07,30.17,30.17,0,0,1-1.79-6.8c-1,2.54-1.62,5.14-3.43,7.2s-4.72,3.75-7.46,3.66C1149.05,125.05,1153.49,125.37,1156,128.58Z"/><path class="cls-10" d="M861.41,592.74c2.08,2.65,3.58,7,5.41,14.84.67-8.61,6.55-19.35,15.88-21.11-4.52.39-9.42-3-11.12-7.23a54.32,54.32,0,0,1-3.2-12.09c-1.83,4.51-2.88,9.14-6.1,12.79s-8.38,6.67-13.25,6.51C849,586.45,856.92,587,861.41,592.74Z"/><path class="cls-10" d="M481.57,591.16c1.76,2.24,3,5.86,4.56,12.5.57-7.25,5.52-16.29,13.36-17.77-3.8.33-7.93-2.48-9.36-6.08a46,46,0,0,1-2.69-10.18c-1.54,3.79-2.42,7.69-5.13,10.76s-7.06,5.62-11.15,5.48C471.16,585.87,477.79,586.36,481.57,591.16Z"/><path class="cls-10" d="M872.85,354.36c1.55,2,2.66,5.16,4,11,.5-6.38,4.87-14.35,11.78-15.66a8.73,8.73,0,0,1-8.25-5.35,40.92,40.92,0,0,1-2.37-9c-1.35,3.34-2.13,6.77-4.52,9.48s-6.22,4.95-9.83,4.83C863.67,349.7,869.52,350.13,872.85,354.36Z"/><path class="cls-10" d="M15.85,463.94c1.55,2,2.66,5.15,4,11,.5-6.39,4.87-14.35,11.78-15.66-3.35.29-7-2.19-8.25-5.36A40.92,40.92,0,0,1,21,445c-1.35,3.34-2.13,6.78-4.52,9.49s-6.22,4.94-9.83,4.82C6.67,459.27,12.52,459.7,15.85,463.94Z"/><path class="cls-10" d="M1266.46,453.3c1.55,2,2.66,5.16,4,11,.5-6.38,4.87-14.35,11.78-15.66a8.73,8.73,0,0,1-8.25-5.35,40.37,40.37,0,0,1-2.37-9c-1.36,3.34-2.13,6.77-4.52,9.48s-6.22,4.95-9.83,4.83C1257.28,448.64,1263.13,449.07,1266.46,453.3Z"/><rect class="cls-16" x="-1.49" y="-258.3" width="1287.45" height="858.3"/></g></g></svg>