<svg xmlns="http://www.w3.org/2000/svg" viewBox="0 0 136.7 196.24"><defs><style>.cls-1{fill:#8cd41f;}.cls-2{fill:#433959;}.cls-3{fill:#00a979;}.cls-11,.cls-4,.cls-8{fill:#f8ffe1;}.cls-5{fill:#514769;}.cls-6{fill:#aaf4db;}.cls-7{fill:none;stroke:#f8ffe1;stroke-miterlimit:10;stroke-width:2px;}.cls-8{font-size:18.19px;}.cls-11,.cls-8{font-family:Montserrat-Bold, Montserrat;font-weight:700;}.cls-9{letter-spacing:-0.01em;}.cls-10{letter-spacing:-0.01em;}.cls-11{font-size:60px;}</style></defs><g id="Capa_2" data-name="Capa 2"><g id="OBJECTS"><polygon class="cls-1" points="94.01 7 85.85 5 85.85 11.17 79.81 9.17 79.81 2 71.65 0 71.65 8.17 65.61 8.17 65.61 0 57.44 2 57.44 9.17 51.4 11.17 51.4 5 43.24 7 43.53 43.71 93.73 43.71 94.01 7"/><ellipse class="cls-2" cx="68.63" cy="43.71" rx="25.1" ry="5.21"/><path class="cls-3" d="M94.57,25.52A2.16,2.16,0,0,1,93.16,25c-.16-.12-6.09-4.69-24.66-4.69-18.3,0-24.66,4.7-24.72,4.74a2.18,2.18,0,0,1-2.71-3.41c.29-.24,7.32-5.7,27.43-5.7,20.37,0,26.84,5.17,27.51,5.76a2.18,2.18,0,0,1,.21,3.08A2.21,2.21,0,0,1,94.57,25.52Z"/><path class="cls-4" d="M76.28,20.61a56.63,56.63,0,0,1,10.8,1.81,2.19,2.19,0,0,0,2.79-2.1v0a2.2,2.2,0,0,0-1.61-2.11,61.19,61.19,0,0,0-11.63-1.93,2.19,2.19,0,0,0-2.36,2.18h0A2.2,2.2,0,0,0,76.28,20.61Z"/><path class="cls-3" d="M94.57,44a2.16,2.16,0,0,1-1.41-.52C93,43.37,87.07,38.8,68.5,38.8c-18.3,0-24.66,4.7-24.72,4.75a2.2,2.2,0,0,1-3.05-.38,2.17,2.17,0,0,1,.34-3c.29-.24,7.32-5.7,27.43-5.7,20.37,0,26.84,5.17,27.51,5.76a2.18,2.18,0,0,1,.21,3.08A2.21,2.21,0,0,1,94.57,44Z"/><path class="cls-4" d="M76.28,39.1a56.63,56.63,0,0,1,10.8,1.81,2.19,2.19,0,0,0,2.79-2.1v0a2.2,2.2,0,0,0-1.61-2.11,62,62,0,0,0-11.63-1.93,2.19,2.19,0,0,0-2.36,2.18h0A2.19,2.19,0,0,0,76.28,39.1Z"/><polygon class="cls-3" points="105.18 196.24 136.7 196.24 133.07 183.27 136.7 170.3 105.18 170.3 105.18 196.24"/><polygon class="cls-2" points="105.18 188.57 122.39 188.57 105.18 196.24 105.18 188.57"/><polygon class="cls-1" points="126.76 152.03 126.76 84.77 68.51 51.14 10.26 84.77 10.26 152.03 68.51 185.66 126.76 152.03"/><path class="cls-1" d="M68.51,194.06,3,156.23V80.57L68.51,42.74,134,80.57v75.66Zm-51-46.23,51,29.43,51-29.43V89l-51-29.43L17.53,89Z"/><polygon class="cls-3" points="68.51 42.74 68.51 59.54 17.53 88.97 2.98 80.57 68.51 42.74"/><polygon class="cls-3" points="134.04 156.23 119.48 147.83 68.51 177.26 68.51 194.06 134.04 156.23"/><circle class="cls-3" cx="70.2" cy="118.4" r="36.1" transform="translate(-63.16 84.32) rotate(-45)"/><path class="cls-5" d="M70.2,82.29c-1.18,0-2.35.07-3.5.18a36.1,36.1,0,0,1,0,71.86c1.15.11,2.32.17,3.5.17a36.11,36.11,0,1,0,0-72.21Z"/><polygon class="cls-6" points="2.98 156.23 17.53 147.83 68.51 177.26 68.51 194.06 2.98 156.23"/><polygon class="cls-6" points="68.51 42.74 68.51 59.54 119.48 88.97 134.04 80.57 68.51 42.74"/><path class="cls-7" d="M17.53,147.83l51,29.43,51-29.43V89l-51-29.43L17.53,89Z"/><polygon class="cls-3" points="31.53 196.24 0 196.24 3.64 183.27 0 170.3 31.53 170.3 31.53 196.24"/><rect class="cls-3" x="14.31" y="162.62" width="108.4" height="25.95"/><polygon class="cls-2" points="31.53 188.57 14.31 188.57 31.53 196.24 31.53 188.57"/></g><g id="TEXT"><text class="cls-8" transform="translate(21.03 181.09)">L<tspan class="cls-9" x="10.99" y="0">E</tspan><tspan class="cls-10" x="23.01" y="0">V</tspan><tspan x="36.3" y="0">EL UP</tspan></text><text class="cls-11" transform="translate(56.87 140.75)">1</text></g></g></svg>