<svg xmlns="http://www.w3.org/2000/svg" viewBox="0 0 136.7 202.3"><defs><style>.cls-1{fill:#39759a;}.cls-2{fill:#433959;}.cls-3{fill:#4aacd1;}.cls-10,.cls-4,.cls-7{fill:#f8ffe1;}.cls-5{fill:#aaf4db;}.cls-6{fill:none;stroke:#f8ffe1;stroke-miterlimit:10;stroke-width:2px;}.cls-7{font-size:18.19px;}.cls-10,.cls-7{font-family:Montserrat-Bold, Montserrat;font-weight:700;}.cls-8{letter-spacing:-0.01em;}.cls-9{letter-spacing:-0.01em;}.cls-10{font-size:60px;}</style></defs><g id="Capa_2" data-name="Capa 2"><g id="OBJECTS"><polygon class="cls-1" points="88.27 15.75 84.58 4.5 75.56 10.5 68.63 0 61.69 10.5 52.67 4.5 48.98 15.75 39.12 12.75 45.29 34.13 68.63 34.13 91.96 34.13 98.13 12.75 88.27 15.75"/><path class="cls-1" d="M68.63,24.18c-13.87,0-25.1,2.34-25.1,5.22V49.77h50.2V29.4C93.73,26.52,82.49,24.18,68.63,24.18Z"/><ellipse class="cls-2" cx="68.63" cy="49.77" rx="25.1" ry="5.21"/><path class="cls-3" d="M94.57,31.58a2.16,2.16,0,0,1-1.41-.52c-.16-.13-6.09-4.7-24.66-4.7-18.3,0-24.66,4.71-24.72,4.75a2.18,2.18,0,0,1-2.71-3.42C41.36,27.46,48.39,22,68.5,22,88.87,22,95.34,27.17,96,27.76a2.18,2.18,0,0,1,.21,3.08A2.21,2.21,0,0,1,94.57,31.58Z"/><path class="cls-4" d="M76.28,26.67a56.76,56.76,0,0,1,10.8,1.8,2.18,2.18,0,0,0,2.79-2.1v0a2.19,2.19,0,0,0-1.61-2.11,61.19,61.19,0,0,0-11.63-1.93,2.19,2.19,0,0,0-2.36,2.18h0A2.2,2.2,0,0,0,76.28,26.67Z"/><path class="cls-3" d="M94.57,50.07a2.16,2.16,0,0,1-1.41-.52c-.16-.12-6.09-4.69-24.66-4.69-18.3,0-24.66,4.7-24.72,4.74a2.18,2.18,0,0,1-2.71-3.41c.29-.24,7.32-5.7,27.43-5.7,20.37,0,26.84,5.17,27.51,5.76a2.18,2.18,0,0,1,.21,3.08A2.21,2.21,0,0,1,94.57,50.07Z"/><path class="cls-4" d="M76.28,45.16A56.63,56.63,0,0,1,87.08,47a2.19,2.19,0,0,0,2.79-2.1v0a2.2,2.2,0,0,0-1.61-2.11A61.19,61.19,0,0,0,76.63,40.8,2.19,2.19,0,0,0,74.27,43h0A2.2,2.2,0,0,0,76.28,45.16Z"/><path class="cls-3" d="M64.75,34.12a3.76,3.76,0,1,1,3.76,3.77A3.76,3.76,0,0,1,64.75,34.12Z"/><path class="cls-3" d="M39.76,37.89a3.77,3.77,0,1,1,3.77,3.76A3.77,3.77,0,0,1,39.76,37.89Z"/><path class="cls-3" d="M90,37.89a3.77,3.77,0,1,1,3.77,3.76A3.77,3.77,0,0,1,90,37.89Z"/><polygon class="cls-3" points="105.18 202.3 136.7 202.3 133.06 189.33 136.7 176.35 105.18 176.35 105.18 202.3"/><polygon class="cls-2" points="105.18 194.63 122.39 194.63 105.18 202.3 105.18 194.63"/><polygon class="cls-3" points="126.76 158.09 126.76 90.83 68.51 57.2 10.26 90.83 10.26 158.09 68.51 191.72 126.76 158.09"/><path class="cls-3" d="M68.51,200.12,3,162.29V86.63L68.51,48.79,134,86.63v75.66Zm-51-46.23,51,29.43,51-29.43V95l-51-29.43L17.53,95Z"/><polygon class="cls-1" points="68.51 48.79 68.51 65.6 17.53 95.03 2.98 86.63 68.51 48.79"/><polygon class="cls-1" points="134.04 162.29 119.48 153.89 68.51 183.32 68.51 200.12 134.04 162.29"/><circle class="cls-1" cx="70.2" cy="124.46" r="36.1" transform="translate(-63.99 173.57) rotate(-80.68)"/><path class="cls-2" d="M70.2,88.35a33.75,33.75,0,0,0-3.5.18,36.1,36.1,0,0,1,0,71.86c1.15.11,2.32.17,3.5.17a36.11,36.11,0,1,0,0-72.21Z"/><polygon class="cls-5" points="2.98 162.29 17.53 153.89 68.51 183.32 68.51 200.12 2.98 162.29"/><polygon class="cls-5" points="68.51 48.79 68.51 65.6 119.48 95.03 134.04 86.63 68.51 48.79"/><path class="cls-6" d="M17.53,153.89l51,29.43,51-29.43V95l-51-29.43L17.53,95Z"/><polygon class="cls-3" points="31.53 202.3 0 202.3 3.64 189.33 0 176.35 31.53 176.35 31.53 202.3"/><rect class="cls-3" x="14.31" y="168.68" width="108.4" height="25.95"/><polygon class="cls-2" points="31.53 194.63 14.31 194.63 31.53 202.3 31.53 194.63"/></g><g id="TEXT"><text class="cls-7" transform="translate(21.03 187.15)">L<tspan class="cls-8" x="10.99" y="0">E</tspan><tspan class="cls-9" x="23.01" y="0">V</tspan><tspan x="36.3" y="0">EL UP</tspan></text><text class="cls-10" transform="translate(50.93 146.81)">2</text></g></g></svg>